<?xml version="1.0" encoding="UTF-8" standalone="no"?>
<!-- Generator: Adobe Illustrator 16.0.0, SVG Export Plug-In . SVG Version: 6.00 Build 0)  -->

<svg
   xmlns:dc="http://purl.org/dc/elements/1.1/"
   xmlns:cc="http://creativecommons.org/ns#"
   xmlns:rdf="http://www.w3.org/1999/02/22-rdf-syntax-ns#"
   xmlns:svg="http://www.w3.org/2000/svg"
   xmlns="http://www.w3.org/2000/svg"
   xmlns:sodipodi="http://sodipodi.sourceforge.net/DTD/sodipodi-0.dtd"
   xmlns:inkscape="http://www.inkscape.org/namespaces/inkscape"
   version="1.1"
   id="Capa_1"
   x="0px"
   y="0px"
   width="523.57935"
   height="240"
   viewBox="0 0 523.57937 240.00001"
   xml:space="preserve"
   sodipodi:docname="hammerhead_Logo.svg"
   inkscape:version="0.92.4 5da689c313, 2019-01-14"
   inkscape:export-filename="/home/alvaro/Desktop/AcheronProject/Hammerhead/Graphics/hammerhead_Logo.png"
   inkscape:export-xdpi="1000"
   inkscape:export-ydpi="1000"><metadata
   id="metadata43"><rdf:RDF><cc:Work
       rdf:about=""><dc:format>image/svg+xml</dc:format><dc:type
         rdf:resource="http://purl.org/dc/dcmitype/StillImage" /><dc:title></dc:title></cc:Work></rdf:RDF></metadata><defs
   id="defs41" /><sodipodi:namedview
   pagecolor="#ffffff"
   bordercolor="#666666"
   borderopacity="1"
   objecttolerance="10"
   gridtolerance="10"
   guidetolerance="10"
   inkscape:pageopacity="0"
   inkscape:pageshadow="2"
   inkscape:window-width="1920"
   inkscape:window-height="1052"
   id="namedview39"
   showgrid="false"
   inkscape:zoom="0.58486506"
   inkscape:cx="300.70884"
   inkscape:cy="-0.56801861"
   inkscape:window-x="1920"
   inkscape:window-y="294"
   inkscape:window-maximized="1"
   inkscape:current-layer="g988"
   fit-margin-top="0"
   fit-margin-left="0"
   fit-margin-right="0"
   fit-margin-bottom="0" />

<g
   id="g8"
   transform="translate(-88.348159,-157.58984)">
</g>
<g
   id="g10"
   transform="translate(-88.348159,-157.58984)">
</g>
<g
   id="g12"
   transform="translate(-88.348159,-157.58984)">
</g>
<g
   id="g14"
   transform="translate(-88.348159,-157.58984)">
</g>
<g
   id="g16"
   transform="translate(-88.348159,-157.58984)">
</g>
<g
   id="g18"
   transform="translate(-88.348159,-157.58984)">
</g>
<g
   id="g20"
   transform="translate(-88.348159,-157.58984)">
</g>
<g
   id="g22"
   transform="translate(-88.348159,-157.58984)">
</g>
<g
   id="g24"
   transform="translate(-88.348159,-157.58984)">
</g>
<g
   id="g26"
   transform="translate(-88.348159,-157.58984)">
</g>
<g
   id="g28"
   transform="translate(-88.348159,-157.58984)">
</g>
<g
   id="g30"
   transform="translate(-88.348159,-157.58984)">
</g>
<g
   id="g32"
   transform="translate(-88.348159,-157.58984)">
</g>
<g
   id="g34"
   transform="translate(-88.348159,-157.58984)">
</g>
<g
   id="g36"
   transform="translate(-88.348159,-157.58984)">
</g>
<g
   id="g979"
   transform="translate(-88.348159,-157.58984)"><g
     id="g988"
     transform="translate(5.4405383)"><g
       id="g997"><g
         transform="matrix(0.45450318,0.45450318,-0.45450318,0.45450318,438.43612,21.00891)"
         id="g6">
	<g
   id="g4">
		<path
   inkscape:connector-curvature="0"
   id="path2"
   d="m 509.063,146.983 c -5.423,-2.986 -12.028,-4.737 -18.226,-5.182 -9.221,-0.669 -18.568,0.266 -27.858,0.641 -7.1,0.285 -14.194,0.959 -21.294,1.094 -8.213,0.159 -14.496,-3.473 -19.771,-9.87 -19.47,-23.61 -42.881,-41.407 -72.615,-49.535 -0.584,-0.159 -1.326,-0.403 -1.657,-0.551 -0.199,-0.09 -0.399,-0.18 -0.6,-0.265 -4.305,-1.865 -8.85,-3.595 -12.807,-6.019 -0.519,-0.314 -0.784,-0.571 -0.612,-0.551 0.171,0.021 0.204,-0.448 0.159,-1.053 -0.062,-0.815 0.012,-1.57 0.188,-2.28 0.147,-0.588 0.734,-1.343 1.184,-1.751 1.158,-1.052 2.187,-2.297 3.031,-3.7 0.11,-0.18 0.22,-0.359 0.33,-0.538 0.188,-0.294 0.702,-0.861 1.15,-1.266 0.657,-0.596 1.311,-1.199 1.922,-1.831 2.954,-3.053 5.622,-6.382 9.046,-10.363 0.396,-0.462 0.616,-0.845 0.489,-0.861 -0.126,-0.017 0.147,-0.351 0.612,-0.738 2.501,-2.068 5.157,-3.97 7.956,-5.708 0.347,-0.216 0.677,-0.44 0.987,-0.673 0.485,-0.363 1.313,-0.869 1.864,-1.118 1.913,-0.869 3.786,-1.946 5.504,-2.95 5.903,-3.451 5.839,-4.749 1.579,-10.004 -13.37,-16.5 -30.976,-25.684 -51.481,-29.939 -2.975,-0.616 -5.937,-1.285 -9.025,-1.439 -0.604,-0.029 -1.566,-0.176 -2.158,-0.294 -1.885,-0.376 -3.863,-0.311 -5.736,0.22 -0.155,0.045 -0.294,0.099 -0.424,0.159 -0.225,0.106 -0.89,0.302 -1.408,0.62 -1.436,0.882 -2.142,2.897 -0.437,4.231 0.139,0.105 0.273,0.216 0.408,0.326 0.221,0.184 0.478,0.824 0.555,1.424 1.041,7.85 -0.526,15.691 -4.096,22.506 -0.282,0.534 -0.845,1.334 -1.249,1.786 -3.709,4.187 -7.593,8.278 -11.864,11.918 -0.918,0.783 -1.853,1.547 -2.799,2.293 -0.474,0.376 -0.922,0.706 -0.992,0.747 -0.04,0.024 -0.085,0.045 -0.126,0.069 -0.196,0.098 -0.371,0.208 -0.519,0.33 -0.265,0.212 -0.812,0.738 -1.297,1.102 -8.67,6.479 -18.156,11.991 -27.132,18.119 -6.03,4.117 -12.081,8.209 -17.923,12.579 -8.372,6.259 -11.102,14.573 -8.396,24.713 1.824,6.825 3.549,13.684 5.447,21.109 0.151,0.588 0.293,1.555 0.318,2.158 0.359,8.585 0.718,17.169 1.077,25.749 0.024,0.604 -0.151,1.135 -0.396,1.175 -0.245,0.041 -0.449,0.563 -0.457,1.167 -0.229,17.54 -1.559,35.101 -8.988,52.167 -0.241,0.555 -0.021,1.253 0.502,1.559 20.441,12.003 41.318,21.008 64.705,22.081 0.604,0.028 1.562,0.195 2.138,0.384 1.465,0.473 2.93,0.946 4.394,1.424 1.665,0.538 2.779,-0.502 3.081,-1.82 0.135,-0.591 0.334,-1.538 0.326,-2.142 -0.008,-0.474 -0.18,-0.976 -0.571,-1.469 -2.395,-3.031 -4.786,-6.062 -7.181,-9.099 -0.375,-0.473 -0.697,-1.04 -0.759,-1.252 -0.037,-0.135 -0.086,-0.258 -0.151,-0.367 -4.309,-7.157 -3.492,-14.75 -1.934,-22.367 0.311,-1.514 0.526,-3.011 0.641,-4.5 0.045,-0.604 0.229,-1.555 0.44,-2.122 2.016,-5.365 4.88,-10.433 8.372,-15.088 0.363,-0.485 1.146,-0.771 1.738,-0.636 11.999,2.701 23.464,7.932 33.044,15.712 3.097,2.514 6.806,5.667 10.155,9.253 0.412,0.445 1.004,1.225 1.326,1.738 0.448,0.727 0.894,1.453 1.321,2.191 0.307,0.522 0.734,1.403 0.959,1.967 0.89,2.264 1.604,4.659 2.15,7.172 1.819,8.368 2.803,16.74 2.799,25.048 0,0.604 -0.425,1.354 -0.935,1.677 -0.845,0.526 -1.688,1.053 -2.529,1.579 -0.515,0.322 -0.951,0.546 -0.979,0.506 -0.024,-0.041 -0.51,0.094 -1.081,0.298 -10.697,3.892 -20.877,7.906 -31.277,11.224 -16.789,5.353 -32.117,13.023 -44.452,25.892 -8.523,8.891 -14.635,19.087 -16.385,31.506 -0.191,1.371 -0.188,2.767 0.017,4.235 0.085,0.6 0.416,0.648 0.71,0.118 2.301,-4.133 4.884,-7.973 7.723,-11.542 0.379,-0.474 0.955,-0.942 1.249,-1.126 0.167,-0.106 0.331,-0.232 0.485,-0.388 15.084,-14.676 37.83,-16.12 54.366,-5.092 0.506,0.334 1.199,1.012 1.566,1.497 0.719,0.95 1.437,1.901 2.154,2.852 0.363,0.481 0.302,1.212 -0.139,1.624 -8.674,8.078 -17.833,15.696 -27.467,22.493 -18.625,13.138 -37.78,25.757 -57.776,36.639 -13.33,7.254 -28.548,11.016 -42.86,16.499 -7.973,3.056 -15.834,6.401 -23.742,9.633 -0.559,0.229 -0.979,0.873 -0.934,1.44 0.045,0.567 0.571,1.069 1.175,1.126 6.675,0.6 13.35,1.204 20.025,1.804 0.604,0.053 0.62,0.229 0.041,0.396 -12.17,3.509 -23.562,9.16 -33.676,16.618 -0.485,0.358 -1.301,0.901 -1.824,1.207 -27.05,15.863 -53.036,33.236 -76.251,54.623 -29.217,26.916 -54.027,56.97 -67.137,95.269 -1.273,3.717 -2.938,7.299 -4.467,10.931 -0.237,0.559 -0.082,1.366 0.338,1.799 l 0.339,0.351 c 0.42,0.437 1.175,0.522 1.685,0.196 6.711,-4.325 13.439,-8.613 20.086,-13.031 0.971,-0.649 1.713,-1.901 2.162,-3.036 8.829,-22.236 24.374,-39.237 42.46,-54.166 16.365,-13.509 34.509,-23.84 54.933,-30.041 3.868,-1.175 6.32,-0.652 8.792,2.688 14.48,19.601 28.058,39.678 35.659,63.158 0.417,1.285 1.012,2.514 1.865,4.48 0.241,0.555 0.591,0.543 0.783,-0.033 4.688,-14.002 7.516,-27.209 6.875,-40.808 -0.441,-9.417 -2.244,-18.793 -3.811,-28.124 -0.963,-5.748 -2.835,-11.342 -3.929,-17.074 -3.064,-16.047 -0.033,-25.41 11.571,-34.468 0.477,-0.371 1.322,-0.865 1.877,-1.102 4.541,-1.918 9.266,-3.411 14.112,-4.443 0.592,-0.126 0.784,0.176 0.441,0.673 -0.849,1.225 -1.648,2.506 -2.399,3.864 -0.294,0.53 -0.033,1.032 0.563,1.139 1.057,0.191 1.746,0.358 2.403,0.281 12.681,-1.502 25.374,-2.909 38.001,-4.77 1.844,-0.273 4.121,-2.436 4.9,-4.276 3.586,-8.457 9.792,-13.084 18.617,-15.32 0.286,-0.073 0.571,-0.146 0.853,-0.224 0.469,-0.127 1.338,-0.298 1.938,-0.384 32.207,-4.619 64.146,-11.91 94.909,-22.444 16.463,-5.639 33.468,-13.391 47.246,-24.37 0.474,-0.379 1.313,-0.518 1.881,-0.31 20.951,7.597 42.783,9.809 66.186,5.06 0.596,-0.119 0.702,-0.543 0.27,-0.968 -0.457,-0.448 -0.686,-0.697 -0.955,-0.75 -18.661,-3.518 -33.599,-12.689 -46.34,-25.386 -0.429,-0.429 -0.53,-1.204 -0.241,-1.734 1.358,-2.489 2.566,-5.08 3.615,-7.776 0.22,-0.563 0.493,-0.91 0.628,-0.768 0.131,0.144 0.539,-0.13 0.901,-0.611 26.655,-35.031 28.315,-73.388 19.033,-115.42 -0.13,-0.592 0.11,-0.726 0.567,-0.326 8.312,7.344 13.387,0.494 19.348,-2.501 24.072,-12.093 47.259,-8.49 69.123,5.357 7.752,4.912 14.093,12.064 21.045,18.229 1.277,1.134 2.452,2.387 4.431,3.312 0.547,0.257 0.882,-0.058 0.719,-0.637 -0.854,-3.023 -1.727,-6.038 -2.534,-9.073 -8.241,-30.919 -28.197,-52.305 -55.504,-67.341 z" />
	</g>
</g><flowRoot
         transform="matrix(0.76069307,0,0,0.76069307,294.23291,142.87834)"
         style="font-style:normal;font-weight:normal;font-size:40px;line-height:1.25;font-family:sans-serif;letter-spacing:0px;word-spacing:0px;fill:#000000;fill-opacity:1;stroke:none"
         id="flowRoot964"
         xml:space="preserve"><flowRegion
           id="flowRegion966"><rect
             y="59.422943"
             x="-280.40656"
             height="140.20328"
             width="523.19763"
             id="rect968" /></flowRegion><flowPara
           style="font-style:normal;font-variant:normal;font-weight:normal;font-stretch:normal;font-family:Pirulen;-inkscape-font-specification:Pirulen"
           id="flowPara970">HAMMERHEAD</flowPara></flowRoot></g></g></g></svg>