M48
; DRILL file {KiCad 5.1.4} date Sat 14 Sep 2019 03:30:06 AM -03
; FORMAT={3:3/ absolute / metric / suppress leading zeros}
; #@! TF.CreationDate,2019-09-14T03:30:06-03:00
; #@! TF.GenerationSoftware,Kicad,Pcbnew,5.1.4
FMAT,2
METRIC,TZ
T1C0.203
T2C0.400
T3C0.600
T4C1.016
T5C1.524
T6C2.500
T7C0.650
T8C1.702
T9C3.048
T10C3.988
%
G90
G05
T1
X144685Y-72517
X169704Y-60897
X234093Y-97790
X235629Y-94234
X237141Y-96012
X238411Y-97536
X238792Y-95885
T2
X148204Y-67527
X149463Y-73507
X150654Y-66167
X153104Y-67437
X176181Y-100965
X182150Y-73794
X184944Y-76708
X186468Y-89789
X189770Y-77216
X200946Y-93853
X226473Y-98529
X228378Y-94107
X228886Y-111823
X231172Y-93345
X241205Y-103124
X242348Y-91694
X257969Y-111823
T4
X240935Y-120396
X240935Y-125476
X240935Y-130556
X241189Y-122936
X241189Y-128016
X243475Y-120396
X243475Y-125476
X243475Y-130556
X243729Y-122936
X243729Y-128016
T5
X95726Y-81280
X95726Y-81280
X102076Y-83820
X102076Y-83820
X100489Y-62230
X100489Y-62230
X106839Y-64770
X106839Y-64770
X86201Y-100330
X86201Y-100330
X92551Y-102870
X92551Y-102870
X162401Y-100330
X162401Y-100330
X168751Y-102870
X168751Y-102870
X76676Y-81280
X76676Y-81280
X83026Y-83820
X83026Y-83820
X124301Y-100330
X124301Y-100330
X130651Y-102870
X130651Y-102870
X214789Y-62230
X214789Y-62230
X221139Y-64770
X221139Y-64770
X245745Y-100330
X245745Y-100330
X252095Y-102870
X252095Y-102870
X45720Y-119380
X45720Y-119380
X52070Y-121920
X52070Y-121920
X81439Y-62230
X81439Y-62230
X87789Y-64770
X87789Y-64770
X195739Y-62230
X195739Y-62230
X202089Y-64770
X202089Y-64770
X105251Y-100330
X105251Y-100330
X111601Y-102870
X111601Y-102870
X157639Y-62230
X157639Y-62230
X163989Y-64770
X163989Y-64770
X210026Y-81280
X210026Y-81280
X216376Y-83820
X216376Y-83820
X176689Y-62230
X176689Y-62230
X183039Y-64770
X183039Y-64770
X138589Y-62230
X138589Y-62230
X144939Y-64770
X144939Y-64770
X200501Y-100330
X200501Y-100330
X206851Y-102870
X206851Y-102870
X152876Y-81280
X152876Y-81280
X159226Y-83820
X159226Y-83820
X62389Y-62230
X62389Y-62230
X68739Y-64770
X68739Y-64770
X140970Y-119380
X140970Y-119380
X147320Y-121920
X147320Y-121920
X143351Y-100330
X143351Y-100330
X149701Y-102870
X149701Y-102870
X250508Y-119380
X250508Y-119380
X256858Y-121920
X256858Y-121920
X55245Y-100330
X55245Y-100330
X61595Y-102870
X61595Y-102870
X43339Y-62230
X43339Y-62230
X49689Y-64770
X49689Y-64770
X50482Y-81280
X50482Y-81280
X56832Y-83820
X56832Y-83820
X133826Y-81280
X133826Y-81280
X140176Y-83820
X140176Y-83820
X181451Y-100330
X181451Y-100330
X187801Y-102870
X187801Y-102870
X210026Y-119380
X210026Y-119380
X216376Y-121920
X216376Y-121920
X114776Y-81280
X114776Y-81280
X121126Y-83820
X121126Y-83820
X229076Y-81280
X229076Y-81280
X235426Y-83820
X235426Y-83820
X119539Y-62230
X119539Y-62230
X125889Y-64770
X125889Y-64770
X43339Y-100330
X43339Y-100330
X49689Y-102870
X49689Y-102870
X69533Y-119380
X69533Y-119380
X75882Y-121920
X75882Y-121920
X252889Y-62230
X252889Y-62230
X259239Y-64770
X259239Y-64770
X219551Y-100330
X219551Y-100330
X225901Y-102870
X225901Y-102870
X250508Y-81280
X250508Y-81280
X256858Y-83820
X256858Y-83820
X229076Y-119380
X229076Y-119380
X235426Y-121920
X235426Y-121920
X233839Y-62230
X233839Y-62230
X240189Y-64770
X240189Y-64770
X171926Y-81280
X171926Y-81280
X178276Y-83820
X178276Y-83820
X190976Y-81280
X190976Y-81280
X197326Y-83820
X197326Y-83820
X64770Y-100330
X64770Y-100330
X71120Y-102870
X71120Y-102870
T7
X147764Y-61687
X153544Y-61687
T8
X102711Y-105410
X112871Y-105410
X155099Y-67310
X165259Y-67310
X207486Y-86360
X217646Y-86360
X174149Y-67310
X184309Y-67310
X136049Y-67310
X146209Y-67310
X197961Y-105410
X208121Y-105410
X150336Y-86360
X160496Y-86360
X59849Y-67310
X70009Y-67310
X138430Y-124460
X148590Y-124460
X140811Y-105410
X150971Y-105410
X247968Y-124460
X258128Y-124460
X52705Y-105410
X62865Y-105410
X40799Y-67310
X50959Y-67310
X47943Y-86360
X58103Y-86360
X131286Y-86360
X141446Y-86360
X178911Y-105410
X189071Y-105410
X207486Y-124460
X217646Y-124460
X112236Y-86360
X122396Y-86360
X226536Y-86360
X236696Y-86360
X116999Y-67310
X127159Y-67310
X40799Y-105410
X50959Y-105410
X66993Y-124460
X77153Y-124460
X250349Y-67310
X260509Y-67310
X217011Y-105410
X227171Y-105410
X247968Y-86360
X258128Y-86360
X226536Y-124460
X236696Y-124460
X231299Y-67310
X241459Y-67310
X169386Y-86360
X179546Y-86360
X188436Y-86360
X198596Y-86360
X62230Y-105410
X72390Y-105410
X93186Y-86360
X103346Y-86360
X97949Y-67310
X108109Y-67310
X83661Y-105410
X93821Y-105410
X159861Y-105410
X170021Y-105410
X74136Y-86360
X84296Y-86360
X121761Y-105410
X131921Y-105410
X212249Y-67310
X222409Y-67310
X243205Y-105410
X253365Y-105410
X43180Y-124460
X53340Y-124460
X78899Y-67310
X89059Y-67310
X193199Y-67310
X203359Y-67310
T9
X93472Y-131445
X193548Y-131445
X45847Y-98425
X69723Y-98425
T10
X183991Y-105410
X212566Y-124460
X117316Y-86360
X231616Y-86360
X122079Y-67310
X45879Y-105410
X72072Y-124460
X255429Y-67310
X222091Y-105410
X253048Y-86360
X231616Y-124460
X236379Y-67310
X174466Y-86360
X193516Y-86360
X67310Y-105410
X98266Y-86360
X103029Y-67310
X88741Y-105410
X164941Y-105410
X79216Y-86360
X126841Y-105410
X217329Y-67310
X248285Y-105410
X48260Y-124460
X83979Y-67310
X198279Y-67310
X107791Y-105410
X160179Y-67310
X212566Y-86360
X179229Y-67310
X141129Y-67310
X203041Y-105410
X155416Y-86360
X64929Y-67310
X93472Y-116205
X143510Y-124460
X193548Y-116205
X145891Y-105410
X253048Y-124460
X45847Y-113665
X57785Y-105410
X69723Y-113665
X45879Y-67310
X53023Y-86360
X136366Y-86360
T3
G00X146354Y-58338
M15
G01X146354Y-57738
M16
G05
G00X146354Y-62788
M15
G01X146354Y-61688
M16
G05
G00X154954Y-58338
M15
G01X154954Y-57738
M16
G05
G00X154954Y-62788
M15
G01X154954Y-61688
M16
G05
T6
G00X224473Y-135235
M15
G01X224473Y-132735
M16
G05
G00X209054Y-67310
M15
G01X206554Y-67310
M16
G05
G00X39104Y-95885
M15
G01X33604Y-95885
M16
G05
G00X267704Y-95885
M15
G01X262204Y-95885
M16
G05
G00X147141Y-86360
M15
G01X144641Y-86360
M16
G05
G00X80407Y-135235
M15
G01X80407Y-132735
M16
G05
G00X94754Y-67310
M15
G01X92254Y-67310
M16
G05
T0
M30
