G04 #@! TF.GenerationSoftware,KiCad,Pcbnew,5.1.4*
G04 #@! TF.CreationDate,2019-09-09T01:33:39-03:00*
G04 #@! TF.ProjectId,hammerhead,68616d6d-6572-4686-9561-642e6b696361,rev?*
G04 #@! TF.SameCoordinates,Original*
G04 #@! TF.FileFunction,Paste,Bot*
G04 #@! TF.FilePolarity,Positive*
%FSLAX46Y46*%
G04 Gerber Fmt 4.6, Leading zero omitted, Abs format (unit mm)*
G04 Created by KiCad (PCBNEW 5.1.4) date 2019-09-09 01:33:39*
%MOMM*%
%LPD*%
G04 APERTURE LIST*
%ADD10C,0.254000*%
%ADD11C,0.300000*%
%ADD12R,1.475000X0.300000*%
%ADD13C,0.600000*%
G04 APERTURE END LIST*
D10*
G36*
X146274704Y-93366972D02*
G01*
X146289265Y-93369132D01*
X146303544Y-93372709D01*
X146317404Y-93377668D01*
X146330711Y-93383962D01*
X146343337Y-93391530D01*
X146355160Y-93400298D01*
X146366067Y-93410184D01*
X146375953Y-93421091D01*
X146384721Y-93432914D01*
X146392289Y-93445540D01*
X146398583Y-93458847D01*
X146403542Y-93472707D01*
X146407119Y-93486986D01*
X146409279Y-93501547D01*
X146410001Y-93516250D01*
X146410001Y-94691250D01*
X146409279Y-94705953D01*
X146407119Y-94720514D01*
X146403542Y-94734793D01*
X146398583Y-94748653D01*
X146392289Y-94761960D01*
X146384721Y-94774586D01*
X146375953Y-94786409D01*
X146366067Y-94797316D01*
X146355160Y-94807202D01*
X146343337Y-94815970D01*
X146330711Y-94823538D01*
X146317404Y-94829832D01*
X146303544Y-94834791D01*
X146289265Y-94838368D01*
X146274704Y-94840528D01*
X146260001Y-94841250D01*
X146259999Y-94841250D01*
X146245296Y-94840528D01*
X146230735Y-94838368D01*
X146216456Y-94834791D01*
X146202596Y-94829832D01*
X146189289Y-94823538D01*
X146176663Y-94815970D01*
X146164840Y-94807202D01*
X146153933Y-94797316D01*
X146144047Y-94786409D01*
X146135279Y-94774586D01*
X146127711Y-94761960D01*
X146121417Y-94748653D01*
X146116458Y-94734793D01*
X146112881Y-94720514D01*
X146110721Y-94705953D01*
X146109999Y-94691250D01*
X146109999Y-93516250D01*
X146110721Y-93501547D01*
X146112881Y-93486986D01*
X146116458Y-93472707D01*
X146121417Y-93458847D01*
X146127711Y-93445540D01*
X146135279Y-93432914D01*
X146144047Y-93421091D01*
X146153933Y-93410184D01*
X146164840Y-93400298D01*
X146176663Y-93391530D01*
X146189289Y-93383962D01*
X146202596Y-93377668D01*
X146216456Y-93372709D01*
X146230735Y-93369132D01*
X146245296Y-93366972D01*
X146259999Y-93366250D01*
X146260001Y-93366250D01*
X146274704Y-93366972D01*
X146274704Y-93366972D01*
G37*
D11*
X146260000Y-94103750D03*
D10*
G36*
X145774704Y-93366972D02*
G01*
X145789265Y-93369132D01*
X145803544Y-93372709D01*
X145817404Y-93377668D01*
X145830711Y-93383962D01*
X145843337Y-93391530D01*
X145855160Y-93400298D01*
X145866067Y-93410184D01*
X145875953Y-93421091D01*
X145884721Y-93432914D01*
X145892289Y-93445540D01*
X145898583Y-93458847D01*
X145903542Y-93472707D01*
X145907119Y-93486986D01*
X145909279Y-93501547D01*
X145910001Y-93516250D01*
X145910001Y-94691250D01*
X145909279Y-94705953D01*
X145907119Y-94720514D01*
X145903542Y-94734793D01*
X145898583Y-94748653D01*
X145892289Y-94761960D01*
X145884721Y-94774586D01*
X145875953Y-94786409D01*
X145866067Y-94797316D01*
X145855160Y-94807202D01*
X145843337Y-94815970D01*
X145830711Y-94823538D01*
X145817404Y-94829832D01*
X145803544Y-94834791D01*
X145789265Y-94838368D01*
X145774704Y-94840528D01*
X145760001Y-94841250D01*
X145759999Y-94841250D01*
X145745296Y-94840528D01*
X145730735Y-94838368D01*
X145716456Y-94834791D01*
X145702596Y-94829832D01*
X145689289Y-94823538D01*
X145676663Y-94815970D01*
X145664840Y-94807202D01*
X145653933Y-94797316D01*
X145644047Y-94786409D01*
X145635279Y-94774586D01*
X145627711Y-94761960D01*
X145621417Y-94748653D01*
X145616458Y-94734793D01*
X145612881Y-94720514D01*
X145610721Y-94705953D01*
X145609999Y-94691250D01*
X145609999Y-93516250D01*
X145610721Y-93501547D01*
X145612881Y-93486986D01*
X145616458Y-93472707D01*
X145621417Y-93458847D01*
X145627711Y-93445540D01*
X145635279Y-93432914D01*
X145644047Y-93421091D01*
X145653933Y-93410184D01*
X145664840Y-93400298D01*
X145676663Y-93391530D01*
X145689289Y-93383962D01*
X145702596Y-93377668D01*
X145716456Y-93372709D01*
X145730735Y-93369132D01*
X145745296Y-93366972D01*
X145759999Y-93366250D01*
X145760001Y-93366250D01*
X145774704Y-93366972D01*
X145774704Y-93366972D01*
G37*
D11*
X145760000Y-94103750D03*
D10*
G36*
X145274704Y-93366972D02*
G01*
X145289265Y-93369132D01*
X145303544Y-93372709D01*
X145317404Y-93377668D01*
X145330711Y-93383962D01*
X145343337Y-93391530D01*
X145355160Y-93400298D01*
X145366067Y-93410184D01*
X145375953Y-93421091D01*
X145384721Y-93432914D01*
X145392289Y-93445540D01*
X145398583Y-93458847D01*
X145403542Y-93472707D01*
X145407119Y-93486986D01*
X145409279Y-93501547D01*
X145410001Y-93516250D01*
X145410001Y-94691250D01*
X145409279Y-94705953D01*
X145407119Y-94720514D01*
X145403542Y-94734793D01*
X145398583Y-94748653D01*
X145392289Y-94761960D01*
X145384721Y-94774586D01*
X145375953Y-94786409D01*
X145366067Y-94797316D01*
X145355160Y-94807202D01*
X145343337Y-94815970D01*
X145330711Y-94823538D01*
X145317404Y-94829832D01*
X145303544Y-94834791D01*
X145289265Y-94838368D01*
X145274704Y-94840528D01*
X145260001Y-94841250D01*
X145259999Y-94841250D01*
X145245296Y-94840528D01*
X145230735Y-94838368D01*
X145216456Y-94834791D01*
X145202596Y-94829832D01*
X145189289Y-94823538D01*
X145176663Y-94815970D01*
X145164840Y-94807202D01*
X145153933Y-94797316D01*
X145144047Y-94786409D01*
X145135279Y-94774586D01*
X145127711Y-94761960D01*
X145121417Y-94748653D01*
X145116458Y-94734793D01*
X145112881Y-94720514D01*
X145110721Y-94705953D01*
X145109999Y-94691250D01*
X145109999Y-93516250D01*
X145110721Y-93501547D01*
X145112881Y-93486986D01*
X145116458Y-93472707D01*
X145121417Y-93458847D01*
X145127711Y-93445540D01*
X145135279Y-93432914D01*
X145144047Y-93421091D01*
X145153933Y-93410184D01*
X145164840Y-93400298D01*
X145176663Y-93391530D01*
X145189289Y-93383962D01*
X145202596Y-93377668D01*
X145216456Y-93372709D01*
X145230735Y-93369132D01*
X145245296Y-93366972D01*
X145259999Y-93366250D01*
X145260001Y-93366250D01*
X145274704Y-93366972D01*
X145274704Y-93366972D01*
G37*
D11*
X145260000Y-94103750D03*
D10*
G36*
X144774704Y-93366972D02*
G01*
X144789265Y-93369132D01*
X144803544Y-93372709D01*
X144817404Y-93377668D01*
X144830711Y-93383962D01*
X144843337Y-93391530D01*
X144855160Y-93400298D01*
X144866067Y-93410184D01*
X144875953Y-93421091D01*
X144884721Y-93432914D01*
X144892289Y-93445540D01*
X144898583Y-93458847D01*
X144903542Y-93472707D01*
X144907119Y-93486986D01*
X144909279Y-93501547D01*
X144910001Y-93516250D01*
X144910001Y-94691250D01*
X144909279Y-94705953D01*
X144907119Y-94720514D01*
X144903542Y-94734793D01*
X144898583Y-94748653D01*
X144892289Y-94761960D01*
X144884721Y-94774586D01*
X144875953Y-94786409D01*
X144866067Y-94797316D01*
X144855160Y-94807202D01*
X144843337Y-94815970D01*
X144830711Y-94823538D01*
X144817404Y-94829832D01*
X144803544Y-94834791D01*
X144789265Y-94838368D01*
X144774704Y-94840528D01*
X144760001Y-94841250D01*
X144759999Y-94841250D01*
X144745296Y-94840528D01*
X144730735Y-94838368D01*
X144716456Y-94834791D01*
X144702596Y-94829832D01*
X144689289Y-94823538D01*
X144676663Y-94815970D01*
X144664840Y-94807202D01*
X144653933Y-94797316D01*
X144644047Y-94786409D01*
X144635279Y-94774586D01*
X144627711Y-94761960D01*
X144621417Y-94748653D01*
X144616458Y-94734793D01*
X144612881Y-94720514D01*
X144610721Y-94705953D01*
X144609999Y-94691250D01*
X144609999Y-93516250D01*
X144610721Y-93501547D01*
X144612881Y-93486986D01*
X144616458Y-93472707D01*
X144621417Y-93458847D01*
X144627711Y-93445540D01*
X144635279Y-93432914D01*
X144644047Y-93421091D01*
X144653933Y-93410184D01*
X144664840Y-93400298D01*
X144676663Y-93391530D01*
X144689289Y-93383962D01*
X144702596Y-93377668D01*
X144716456Y-93372709D01*
X144730735Y-93369132D01*
X144745296Y-93366972D01*
X144759999Y-93366250D01*
X144760001Y-93366250D01*
X144774704Y-93366972D01*
X144774704Y-93366972D01*
G37*
D11*
X144760000Y-94103750D03*
D10*
G36*
X144274704Y-93366972D02*
G01*
X144289265Y-93369132D01*
X144303544Y-93372709D01*
X144317404Y-93377668D01*
X144330711Y-93383962D01*
X144343337Y-93391530D01*
X144355160Y-93400298D01*
X144366067Y-93410184D01*
X144375953Y-93421091D01*
X144384721Y-93432914D01*
X144392289Y-93445540D01*
X144398583Y-93458847D01*
X144403542Y-93472707D01*
X144407119Y-93486986D01*
X144409279Y-93501547D01*
X144410001Y-93516250D01*
X144410001Y-94691250D01*
X144409279Y-94705953D01*
X144407119Y-94720514D01*
X144403542Y-94734793D01*
X144398583Y-94748653D01*
X144392289Y-94761960D01*
X144384721Y-94774586D01*
X144375953Y-94786409D01*
X144366067Y-94797316D01*
X144355160Y-94807202D01*
X144343337Y-94815970D01*
X144330711Y-94823538D01*
X144317404Y-94829832D01*
X144303544Y-94834791D01*
X144289265Y-94838368D01*
X144274704Y-94840528D01*
X144260001Y-94841250D01*
X144259999Y-94841250D01*
X144245296Y-94840528D01*
X144230735Y-94838368D01*
X144216456Y-94834791D01*
X144202596Y-94829832D01*
X144189289Y-94823538D01*
X144176663Y-94815970D01*
X144164840Y-94807202D01*
X144153933Y-94797316D01*
X144144047Y-94786409D01*
X144135279Y-94774586D01*
X144127711Y-94761960D01*
X144121417Y-94748653D01*
X144116458Y-94734793D01*
X144112881Y-94720514D01*
X144110721Y-94705953D01*
X144109999Y-94691250D01*
X144109999Y-93516250D01*
X144110721Y-93501547D01*
X144112881Y-93486986D01*
X144116458Y-93472707D01*
X144121417Y-93458847D01*
X144127711Y-93445540D01*
X144135279Y-93432914D01*
X144144047Y-93421091D01*
X144153933Y-93410184D01*
X144164840Y-93400298D01*
X144176663Y-93391530D01*
X144189289Y-93383962D01*
X144202596Y-93377668D01*
X144216456Y-93372709D01*
X144230735Y-93369132D01*
X144245296Y-93366972D01*
X144259999Y-93366250D01*
X144260001Y-93366250D01*
X144274704Y-93366972D01*
X144274704Y-93366972D01*
G37*
D11*
X144260000Y-94103750D03*
D10*
G36*
X143774704Y-93366972D02*
G01*
X143789265Y-93369132D01*
X143803544Y-93372709D01*
X143817404Y-93377668D01*
X143830711Y-93383962D01*
X143843337Y-93391530D01*
X143855160Y-93400298D01*
X143866067Y-93410184D01*
X143875953Y-93421091D01*
X143884721Y-93432914D01*
X143892289Y-93445540D01*
X143898583Y-93458847D01*
X143903542Y-93472707D01*
X143907119Y-93486986D01*
X143909279Y-93501547D01*
X143910001Y-93516250D01*
X143910001Y-94691250D01*
X143909279Y-94705953D01*
X143907119Y-94720514D01*
X143903542Y-94734793D01*
X143898583Y-94748653D01*
X143892289Y-94761960D01*
X143884721Y-94774586D01*
X143875953Y-94786409D01*
X143866067Y-94797316D01*
X143855160Y-94807202D01*
X143843337Y-94815970D01*
X143830711Y-94823538D01*
X143817404Y-94829832D01*
X143803544Y-94834791D01*
X143789265Y-94838368D01*
X143774704Y-94840528D01*
X143760001Y-94841250D01*
X143759999Y-94841250D01*
X143745296Y-94840528D01*
X143730735Y-94838368D01*
X143716456Y-94834791D01*
X143702596Y-94829832D01*
X143689289Y-94823538D01*
X143676663Y-94815970D01*
X143664840Y-94807202D01*
X143653933Y-94797316D01*
X143644047Y-94786409D01*
X143635279Y-94774586D01*
X143627711Y-94761960D01*
X143621417Y-94748653D01*
X143616458Y-94734793D01*
X143612881Y-94720514D01*
X143610721Y-94705953D01*
X143609999Y-94691250D01*
X143609999Y-93516250D01*
X143610721Y-93501547D01*
X143612881Y-93486986D01*
X143616458Y-93472707D01*
X143621417Y-93458847D01*
X143627711Y-93445540D01*
X143635279Y-93432914D01*
X143644047Y-93421091D01*
X143653933Y-93410184D01*
X143664840Y-93400298D01*
X143676663Y-93391530D01*
X143689289Y-93383962D01*
X143702596Y-93377668D01*
X143716456Y-93372709D01*
X143730735Y-93369132D01*
X143745296Y-93366972D01*
X143759999Y-93366250D01*
X143760001Y-93366250D01*
X143774704Y-93366972D01*
X143774704Y-93366972D01*
G37*
D11*
X143760000Y-94103750D03*
D10*
G36*
X143274704Y-93366972D02*
G01*
X143289265Y-93369132D01*
X143303544Y-93372709D01*
X143317404Y-93377668D01*
X143330711Y-93383962D01*
X143343337Y-93391530D01*
X143355160Y-93400298D01*
X143366067Y-93410184D01*
X143375953Y-93421091D01*
X143384721Y-93432914D01*
X143392289Y-93445540D01*
X143398583Y-93458847D01*
X143403542Y-93472707D01*
X143407119Y-93486986D01*
X143409279Y-93501547D01*
X143410001Y-93516250D01*
X143410001Y-94691250D01*
X143409279Y-94705953D01*
X143407119Y-94720514D01*
X143403542Y-94734793D01*
X143398583Y-94748653D01*
X143392289Y-94761960D01*
X143384721Y-94774586D01*
X143375953Y-94786409D01*
X143366067Y-94797316D01*
X143355160Y-94807202D01*
X143343337Y-94815970D01*
X143330711Y-94823538D01*
X143317404Y-94829832D01*
X143303544Y-94834791D01*
X143289265Y-94838368D01*
X143274704Y-94840528D01*
X143260001Y-94841250D01*
X143259999Y-94841250D01*
X143245296Y-94840528D01*
X143230735Y-94838368D01*
X143216456Y-94834791D01*
X143202596Y-94829832D01*
X143189289Y-94823538D01*
X143176663Y-94815970D01*
X143164840Y-94807202D01*
X143153933Y-94797316D01*
X143144047Y-94786409D01*
X143135279Y-94774586D01*
X143127711Y-94761960D01*
X143121417Y-94748653D01*
X143116458Y-94734793D01*
X143112881Y-94720514D01*
X143110721Y-94705953D01*
X143109999Y-94691250D01*
X143109999Y-93516250D01*
X143110721Y-93501547D01*
X143112881Y-93486986D01*
X143116458Y-93472707D01*
X143121417Y-93458847D01*
X143127711Y-93445540D01*
X143135279Y-93432914D01*
X143144047Y-93421091D01*
X143153933Y-93410184D01*
X143164840Y-93400298D01*
X143176663Y-93391530D01*
X143189289Y-93383962D01*
X143202596Y-93377668D01*
X143216456Y-93372709D01*
X143230735Y-93369132D01*
X143245296Y-93366972D01*
X143259999Y-93366250D01*
X143260001Y-93366250D01*
X143274704Y-93366972D01*
X143274704Y-93366972D01*
G37*
D11*
X143260000Y-94103750D03*
D10*
G36*
X142774704Y-93366972D02*
G01*
X142789265Y-93369132D01*
X142803544Y-93372709D01*
X142817404Y-93377668D01*
X142830711Y-93383962D01*
X142843337Y-93391530D01*
X142855160Y-93400298D01*
X142866067Y-93410184D01*
X142875953Y-93421091D01*
X142884721Y-93432914D01*
X142892289Y-93445540D01*
X142898583Y-93458847D01*
X142903542Y-93472707D01*
X142907119Y-93486986D01*
X142909279Y-93501547D01*
X142910001Y-93516250D01*
X142910001Y-94691250D01*
X142909279Y-94705953D01*
X142907119Y-94720514D01*
X142903542Y-94734793D01*
X142898583Y-94748653D01*
X142892289Y-94761960D01*
X142884721Y-94774586D01*
X142875953Y-94786409D01*
X142866067Y-94797316D01*
X142855160Y-94807202D01*
X142843337Y-94815970D01*
X142830711Y-94823538D01*
X142817404Y-94829832D01*
X142803544Y-94834791D01*
X142789265Y-94838368D01*
X142774704Y-94840528D01*
X142760001Y-94841250D01*
X142759999Y-94841250D01*
X142745296Y-94840528D01*
X142730735Y-94838368D01*
X142716456Y-94834791D01*
X142702596Y-94829832D01*
X142689289Y-94823538D01*
X142676663Y-94815970D01*
X142664840Y-94807202D01*
X142653933Y-94797316D01*
X142644047Y-94786409D01*
X142635279Y-94774586D01*
X142627711Y-94761960D01*
X142621417Y-94748653D01*
X142616458Y-94734793D01*
X142612881Y-94720514D01*
X142610721Y-94705953D01*
X142609999Y-94691250D01*
X142609999Y-93516250D01*
X142610721Y-93501547D01*
X142612881Y-93486986D01*
X142616458Y-93472707D01*
X142621417Y-93458847D01*
X142627711Y-93445540D01*
X142635279Y-93432914D01*
X142644047Y-93421091D01*
X142653933Y-93410184D01*
X142664840Y-93400298D01*
X142676663Y-93391530D01*
X142689289Y-93383962D01*
X142702596Y-93377668D01*
X142716456Y-93372709D01*
X142730735Y-93369132D01*
X142745296Y-93366972D01*
X142759999Y-93366250D01*
X142760001Y-93366250D01*
X142774704Y-93366972D01*
X142774704Y-93366972D01*
G37*
D11*
X142760000Y-94103750D03*
D10*
G36*
X142274704Y-93366972D02*
G01*
X142289265Y-93369132D01*
X142303544Y-93372709D01*
X142317404Y-93377668D01*
X142330711Y-93383962D01*
X142343337Y-93391530D01*
X142355160Y-93400298D01*
X142366067Y-93410184D01*
X142375953Y-93421091D01*
X142384721Y-93432914D01*
X142392289Y-93445540D01*
X142398583Y-93458847D01*
X142403542Y-93472707D01*
X142407119Y-93486986D01*
X142409279Y-93501547D01*
X142410001Y-93516250D01*
X142410001Y-94691250D01*
X142409279Y-94705953D01*
X142407119Y-94720514D01*
X142403542Y-94734793D01*
X142398583Y-94748653D01*
X142392289Y-94761960D01*
X142384721Y-94774586D01*
X142375953Y-94786409D01*
X142366067Y-94797316D01*
X142355160Y-94807202D01*
X142343337Y-94815970D01*
X142330711Y-94823538D01*
X142317404Y-94829832D01*
X142303544Y-94834791D01*
X142289265Y-94838368D01*
X142274704Y-94840528D01*
X142260001Y-94841250D01*
X142259999Y-94841250D01*
X142245296Y-94840528D01*
X142230735Y-94838368D01*
X142216456Y-94834791D01*
X142202596Y-94829832D01*
X142189289Y-94823538D01*
X142176663Y-94815970D01*
X142164840Y-94807202D01*
X142153933Y-94797316D01*
X142144047Y-94786409D01*
X142135279Y-94774586D01*
X142127711Y-94761960D01*
X142121417Y-94748653D01*
X142116458Y-94734793D01*
X142112881Y-94720514D01*
X142110721Y-94705953D01*
X142109999Y-94691250D01*
X142109999Y-93516250D01*
X142110721Y-93501547D01*
X142112881Y-93486986D01*
X142116458Y-93472707D01*
X142121417Y-93458847D01*
X142127711Y-93445540D01*
X142135279Y-93432914D01*
X142144047Y-93421091D01*
X142153933Y-93410184D01*
X142164840Y-93400298D01*
X142176663Y-93391530D01*
X142189289Y-93383962D01*
X142202596Y-93377668D01*
X142216456Y-93372709D01*
X142230735Y-93369132D01*
X142245296Y-93366972D01*
X142259999Y-93366250D01*
X142260001Y-93366250D01*
X142274704Y-93366972D01*
X142274704Y-93366972D01*
G37*
D11*
X142260000Y-94103750D03*
D10*
G36*
X141774704Y-93366972D02*
G01*
X141789265Y-93369132D01*
X141803544Y-93372709D01*
X141817404Y-93377668D01*
X141830711Y-93383962D01*
X141843337Y-93391530D01*
X141855160Y-93400298D01*
X141866067Y-93410184D01*
X141875953Y-93421091D01*
X141884721Y-93432914D01*
X141892289Y-93445540D01*
X141898583Y-93458847D01*
X141903542Y-93472707D01*
X141907119Y-93486986D01*
X141909279Y-93501547D01*
X141910001Y-93516250D01*
X141910001Y-94691250D01*
X141909279Y-94705953D01*
X141907119Y-94720514D01*
X141903542Y-94734793D01*
X141898583Y-94748653D01*
X141892289Y-94761960D01*
X141884721Y-94774586D01*
X141875953Y-94786409D01*
X141866067Y-94797316D01*
X141855160Y-94807202D01*
X141843337Y-94815970D01*
X141830711Y-94823538D01*
X141817404Y-94829832D01*
X141803544Y-94834791D01*
X141789265Y-94838368D01*
X141774704Y-94840528D01*
X141760001Y-94841250D01*
X141759999Y-94841250D01*
X141745296Y-94840528D01*
X141730735Y-94838368D01*
X141716456Y-94834791D01*
X141702596Y-94829832D01*
X141689289Y-94823538D01*
X141676663Y-94815970D01*
X141664840Y-94807202D01*
X141653933Y-94797316D01*
X141644047Y-94786409D01*
X141635279Y-94774586D01*
X141627711Y-94761960D01*
X141621417Y-94748653D01*
X141616458Y-94734793D01*
X141612881Y-94720514D01*
X141610721Y-94705953D01*
X141609999Y-94691250D01*
X141609999Y-93516250D01*
X141610721Y-93501547D01*
X141612881Y-93486986D01*
X141616458Y-93472707D01*
X141621417Y-93458847D01*
X141627711Y-93445540D01*
X141635279Y-93432914D01*
X141644047Y-93421091D01*
X141653933Y-93410184D01*
X141664840Y-93400298D01*
X141676663Y-93391530D01*
X141689289Y-93383962D01*
X141702596Y-93377668D01*
X141716456Y-93372709D01*
X141730735Y-93369132D01*
X141745296Y-93366972D01*
X141759999Y-93366250D01*
X141760001Y-93366250D01*
X141774704Y-93366972D01*
X141774704Y-93366972D01*
G37*
D11*
X141760000Y-94103750D03*
D10*
G36*
X141274704Y-93366972D02*
G01*
X141289265Y-93369132D01*
X141303544Y-93372709D01*
X141317404Y-93377668D01*
X141330711Y-93383962D01*
X141343337Y-93391530D01*
X141355160Y-93400298D01*
X141366067Y-93410184D01*
X141375953Y-93421091D01*
X141384721Y-93432914D01*
X141392289Y-93445540D01*
X141398583Y-93458847D01*
X141403542Y-93472707D01*
X141407119Y-93486986D01*
X141409279Y-93501547D01*
X141410001Y-93516250D01*
X141410001Y-94691250D01*
X141409279Y-94705953D01*
X141407119Y-94720514D01*
X141403542Y-94734793D01*
X141398583Y-94748653D01*
X141392289Y-94761960D01*
X141384721Y-94774586D01*
X141375953Y-94786409D01*
X141366067Y-94797316D01*
X141355160Y-94807202D01*
X141343337Y-94815970D01*
X141330711Y-94823538D01*
X141317404Y-94829832D01*
X141303544Y-94834791D01*
X141289265Y-94838368D01*
X141274704Y-94840528D01*
X141260001Y-94841250D01*
X141259999Y-94841250D01*
X141245296Y-94840528D01*
X141230735Y-94838368D01*
X141216456Y-94834791D01*
X141202596Y-94829832D01*
X141189289Y-94823538D01*
X141176663Y-94815970D01*
X141164840Y-94807202D01*
X141153933Y-94797316D01*
X141144047Y-94786409D01*
X141135279Y-94774586D01*
X141127711Y-94761960D01*
X141121417Y-94748653D01*
X141116458Y-94734793D01*
X141112881Y-94720514D01*
X141110721Y-94705953D01*
X141109999Y-94691250D01*
X141109999Y-93516250D01*
X141110721Y-93501547D01*
X141112881Y-93486986D01*
X141116458Y-93472707D01*
X141121417Y-93458847D01*
X141127711Y-93445540D01*
X141135279Y-93432914D01*
X141144047Y-93421091D01*
X141153933Y-93410184D01*
X141164840Y-93400298D01*
X141176663Y-93391530D01*
X141189289Y-93383962D01*
X141202596Y-93377668D01*
X141216456Y-93372709D01*
X141230735Y-93369132D01*
X141245296Y-93366972D01*
X141259999Y-93366250D01*
X141260001Y-93366250D01*
X141274704Y-93366972D01*
X141274704Y-93366972D01*
G37*
D11*
X141260000Y-94103750D03*
D10*
G36*
X140774704Y-93366972D02*
G01*
X140789265Y-93369132D01*
X140803544Y-93372709D01*
X140817404Y-93377668D01*
X140830711Y-93383962D01*
X140843337Y-93391530D01*
X140855160Y-93400298D01*
X140866067Y-93410184D01*
X140875953Y-93421091D01*
X140884721Y-93432914D01*
X140892289Y-93445540D01*
X140898583Y-93458847D01*
X140903542Y-93472707D01*
X140907119Y-93486986D01*
X140909279Y-93501547D01*
X140910001Y-93516250D01*
X140910001Y-94691250D01*
X140909279Y-94705953D01*
X140907119Y-94720514D01*
X140903542Y-94734793D01*
X140898583Y-94748653D01*
X140892289Y-94761960D01*
X140884721Y-94774586D01*
X140875953Y-94786409D01*
X140866067Y-94797316D01*
X140855160Y-94807202D01*
X140843337Y-94815970D01*
X140830711Y-94823538D01*
X140817404Y-94829832D01*
X140803544Y-94834791D01*
X140789265Y-94838368D01*
X140774704Y-94840528D01*
X140760001Y-94841250D01*
X140759999Y-94841250D01*
X140745296Y-94840528D01*
X140730735Y-94838368D01*
X140716456Y-94834791D01*
X140702596Y-94829832D01*
X140689289Y-94823538D01*
X140676663Y-94815970D01*
X140664840Y-94807202D01*
X140653933Y-94797316D01*
X140644047Y-94786409D01*
X140635279Y-94774586D01*
X140627711Y-94761960D01*
X140621417Y-94748653D01*
X140616458Y-94734793D01*
X140612881Y-94720514D01*
X140610721Y-94705953D01*
X140609999Y-94691250D01*
X140609999Y-93516250D01*
X140610721Y-93501547D01*
X140612881Y-93486986D01*
X140616458Y-93472707D01*
X140621417Y-93458847D01*
X140627711Y-93445540D01*
X140635279Y-93432914D01*
X140644047Y-93421091D01*
X140653933Y-93410184D01*
X140664840Y-93400298D01*
X140676663Y-93391530D01*
X140689289Y-93383962D01*
X140702596Y-93377668D01*
X140716456Y-93372709D01*
X140730735Y-93369132D01*
X140745296Y-93366972D01*
X140759999Y-93366250D01*
X140760001Y-93366250D01*
X140774704Y-93366972D01*
X140774704Y-93366972D01*
G37*
D11*
X140760000Y-94103750D03*
D10*
G36*
X139949703Y-95366971D02*
G01*
X139964264Y-95369131D01*
X139978543Y-95372708D01*
X139992403Y-95377667D01*
X140005710Y-95383961D01*
X140018336Y-95391529D01*
X140030159Y-95400297D01*
X140041066Y-95410183D01*
X140050952Y-95421090D01*
X140059720Y-95432913D01*
X140067288Y-95445539D01*
X140073582Y-95458846D01*
X140078541Y-95472706D01*
X140082118Y-95486985D01*
X140084278Y-95501546D01*
X140085000Y-95516249D01*
X140085000Y-95516251D01*
X140084278Y-95530954D01*
X140082118Y-95545515D01*
X140078541Y-95559794D01*
X140073582Y-95573654D01*
X140067288Y-95586961D01*
X140059720Y-95599587D01*
X140050952Y-95611410D01*
X140041066Y-95622317D01*
X140030159Y-95632203D01*
X140018336Y-95640971D01*
X140005710Y-95648539D01*
X139992403Y-95654833D01*
X139978543Y-95659792D01*
X139964264Y-95663369D01*
X139949703Y-95665529D01*
X139935000Y-95666251D01*
X138760000Y-95666251D01*
X138745297Y-95665529D01*
X138730736Y-95663369D01*
X138716457Y-95659792D01*
X138702597Y-95654833D01*
X138689290Y-95648539D01*
X138676664Y-95640971D01*
X138664841Y-95632203D01*
X138653934Y-95622317D01*
X138644048Y-95611410D01*
X138635280Y-95599587D01*
X138627712Y-95586961D01*
X138621418Y-95573654D01*
X138616459Y-95559794D01*
X138612882Y-95545515D01*
X138610722Y-95530954D01*
X138610000Y-95516251D01*
X138610000Y-95516249D01*
X138610722Y-95501546D01*
X138612882Y-95486985D01*
X138616459Y-95472706D01*
X138621418Y-95458846D01*
X138627712Y-95445539D01*
X138635280Y-95432913D01*
X138644048Y-95421090D01*
X138653934Y-95410183D01*
X138664841Y-95400297D01*
X138676664Y-95391529D01*
X138689290Y-95383961D01*
X138702597Y-95377667D01*
X138716457Y-95372708D01*
X138730736Y-95369131D01*
X138745297Y-95366971D01*
X138760000Y-95366249D01*
X139935000Y-95366249D01*
X139949703Y-95366971D01*
X139949703Y-95366971D01*
G37*
D11*
X139347500Y-95516250D03*
D10*
G36*
X139949703Y-95866971D02*
G01*
X139964264Y-95869131D01*
X139978543Y-95872708D01*
X139992403Y-95877667D01*
X140005710Y-95883961D01*
X140018336Y-95891529D01*
X140030159Y-95900297D01*
X140041066Y-95910183D01*
X140050952Y-95921090D01*
X140059720Y-95932913D01*
X140067288Y-95945539D01*
X140073582Y-95958846D01*
X140078541Y-95972706D01*
X140082118Y-95986985D01*
X140084278Y-96001546D01*
X140085000Y-96016249D01*
X140085000Y-96016251D01*
X140084278Y-96030954D01*
X140082118Y-96045515D01*
X140078541Y-96059794D01*
X140073582Y-96073654D01*
X140067288Y-96086961D01*
X140059720Y-96099587D01*
X140050952Y-96111410D01*
X140041066Y-96122317D01*
X140030159Y-96132203D01*
X140018336Y-96140971D01*
X140005710Y-96148539D01*
X139992403Y-96154833D01*
X139978543Y-96159792D01*
X139964264Y-96163369D01*
X139949703Y-96165529D01*
X139935000Y-96166251D01*
X138760000Y-96166251D01*
X138745297Y-96165529D01*
X138730736Y-96163369D01*
X138716457Y-96159792D01*
X138702597Y-96154833D01*
X138689290Y-96148539D01*
X138676664Y-96140971D01*
X138664841Y-96132203D01*
X138653934Y-96122317D01*
X138644048Y-96111410D01*
X138635280Y-96099587D01*
X138627712Y-96086961D01*
X138621418Y-96073654D01*
X138616459Y-96059794D01*
X138612882Y-96045515D01*
X138610722Y-96030954D01*
X138610000Y-96016251D01*
X138610000Y-96016249D01*
X138610722Y-96001546D01*
X138612882Y-95986985D01*
X138616459Y-95972706D01*
X138621418Y-95958846D01*
X138627712Y-95945539D01*
X138635280Y-95932913D01*
X138644048Y-95921090D01*
X138653934Y-95910183D01*
X138664841Y-95900297D01*
X138676664Y-95891529D01*
X138689290Y-95883961D01*
X138702597Y-95877667D01*
X138716457Y-95872708D01*
X138730736Y-95869131D01*
X138745297Y-95866971D01*
X138760000Y-95866249D01*
X139935000Y-95866249D01*
X139949703Y-95866971D01*
X139949703Y-95866971D01*
G37*
D11*
X139347500Y-96016250D03*
D10*
G36*
X139949703Y-96366971D02*
G01*
X139964264Y-96369131D01*
X139978543Y-96372708D01*
X139992403Y-96377667D01*
X140005710Y-96383961D01*
X140018336Y-96391529D01*
X140030159Y-96400297D01*
X140041066Y-96410183D01*
X140050952Y-96421090D01*
X140059720Y-96432913D01*
X140067288Y-96445539D01*
X140073582Y-96458846D01*
X140078541Y-96472706D01*
X140082118Y-96486985D01*
X140084278Y-96501546D01*
X140085000Y-96516249D01*
X140085000Y-96516251D01*
X140084278Y-96530954D01*
X140082118Y-96545515D01*
X140078541Y-96559794D01*
X140073582Y-96573654D01*
X140067288Y-96586961D01*
X140059720Y-96599587D01*
X140050952Y-96611410D01*
X140041066Y-96622317D01*
X140030159Y-96632203D01*
X140018336Y-96640971D01*
X140005710Y-96648539D01*
X139992403Y-96654833D01*
X139978543Y-96659792D01*
X139964264Y-96663369D01*
X139949703Y-96665529D01*
X139935000Y-96666251D01*
X138760000Y-96666251D01*
X138745297Y-96665529D01*
X138730736Y-96663369D01*
X138716457Y-96659792D01*
X138702597Y-96654833D01*
X138689290Y-96648539D01*
X138676664Y-96640971D01*
X138664841Y-96632203D01*
X138653934Y-96622317D01*
X138644048Y-96611410D01*
X138635280Y-96599587D01*
X138627712Y-96586961D01*
X138621418Y-96573654D01*
X138616459Y-96559794D01*
X138612882Y-96545515D01*
X138610722Y-96530954D01*
X138610000Y-96516251D01*
X138610000Y-96516249D01*
X138610722Y-96501546D01*
X138612882Y-96486985D01*
X138616459Y-96472706D01*
X138621418Y-96458846D01*
X138627712Y-96445539D01*
X138635280Y-96432913D01*
X138644048Y-96421090D01*
X138653934Y-96410183D01*
X138664841Y-96400297D01*
X138676664Y-96391529D01*
X138689290Y-96383961D01*
X138702597Y-96377667D01*
X138716457Y-96372708D01*
X138730736Y-96369131D01*
X138745297Y-96366971D01*
X138760000Y-96366249D01*
X139935000Y-96366249D01*
X139949703Y-96366971D01*
X139949703Y-96366971D01*
G37*
D11*
X139347500Y-96516250D03*
D10*
G36*
X139949703Y-96866971D02*
G01*
X139964264Y-96869131D01*
X139978543Y-96872708D01*
X139992403Y-96877667D01*
X140005710Y-96883961D01*
X140018336Y-96891529D01*
X140030159Y-96900297D01*
X140041066Y-96910183D01*
X140050952Y-96921090D01*
X140059720Y-96932913D01*
X140067288Y-96945539D01*
X140073582Y-96958846D01*
X140078541Y-96972706D01*
X140082118Y-96986985D01*
X140084278Y-97001546D01*
X140085000Y-97016249D01*
X140085000Y-97016251D01*
X140084278Y-97030954D01*
X140082118Y-97045515D01*
X140078541Y-97059794D01*
X140073582Y-97073654D01*
X140067288Y-97086961D01*
X140059720Y-97099587D01*
X140050952Y-97111410D01*
X140041066Y-97122317D01*
X140030159Y-97132203D01*
X140018336Y-97140971D01*
X140005710Y-97148539D01*
X139992403Y-97154833D01*
X139978543Y-97159792D01*
X139964264Y-97163369D01*
X139949703Y-97165529D01*
X139935000Y-97166251D01*
X138760000Y-97166251D01*
X138745297Y-97165529D01*
X138730736Y-97163369D01*
X138716457Y-97159792D01*
X138702597Y-97154833D01*
X138689290Y-97148539D01*
X138676664Y-97140971D01*
X138664841Y-97132203D01*
X138653934Y-97122317D01*
X138644048Y-97111410D01*
X138635280Y-97099587D01*
X138627712Y-97086961D01*
X138621418Y-97073654D01*
X138616459Y-97059794D01*
X138612882Y-97045515D01*
X138610722Y-97030954D01*
X138610000Y-97016251D01*
X138610000Y-97016249D01*
X138610722Y-97001546D01*
X138612882Y-96986985D01*
X138616459Y-96972706D01*
X138621418Y-96958846D01*
X138627712Y-96945539D01*
X138635280Y-96932913D01*
X138644048Y-96921090D01*
X138653934Y-96910183D01*
X138664841Y-96900297D01*
X138676664Y-96891529D01*
X138689290Y-96883961D01*
X138702597Y-96877667D01*
X138716457Y-96872708D01*
X138730736Y-96869131D01*
X138745297Y-96866971D01*
X138760000Y-96866249D01*
X139935000Y-96866249D01*
X139949703Y-96866971D01*
X139949703Y-96866971D01*
G37*
D11*
X139347500Y-97016250D03*
D10*
G36*
X139949703Y-97366971D02*
G01*
X139964264Y-97369131D01*
X139978543Y-97372708D01*
X139992403Y-97377667D01*
X140005710Y-97383961D01*
X140018336Y-97391529D01*
X140030159Y-97400297D01*
X140041066Y-97410183D01*
X140050952Y-97421090D01*
X140059720Y-97432913D01*
X140067288Y-97445539D01*
X140073582Y-97458846D01*
X140078541Y-97472706D01*
X140082118Y-97486985D01*
X140084278Y-97501546D01*
X140085000Y-97516249D01*
X140085000Y-97516251D01*
X140084278Y-97530954D01*
X140082118Y-97545515D01*
X140078541Y-97559794D01*
X140073582Y-97573654D01*
X140067288Y-97586961D01*
X140059720Y-97599587D01*
X140050952Y-97611410D01*
X140041066Y-97622317D01*
X140030159Y-97632203D01*
X140018336Y-97640971D01*
X140005710Y-97648539D01*
X139992403Y-97654833D01*
X139978543Y-97659792D01*
X139964264Y-97663369D01*
X139949703Y-97665529D01*
X139935000Y-97666251D01*
X138760000Y-97666251D01*
X138745297Y-97665529D01*
X138730736Y-97663369D01*
X138716457Y-97659792D01*
X138702597Y-97654833D01*
X138689290Y-97648539D01*
X138676664Y-97640971D01*
X138664841Y-97632203D01*
X138653934Y-97622317D01*
X138644048Y-97611410D01*
X138635280Y-97599587D01*
X138627712Y-97586961D01*
X138621418Y-97573654D01*
X138616459Y-97559794D01*
X138612882Y-97545515D01*
X138610722Y-97530954D01*
X138610000Y-97516251D01*
X138610000Y-97516249D01*
X138610722Y-97501546D01*
X138612882Y-97486985D01*
X138616459Y-97472706D01*
X138621418Y-97458846D01*
X138627712Y-97445539D01*
X138635280Y-97432913D01*
X138644048Y-97421090D01*
X138653934Y-97410183D01*
X138664841Y-97400297D01*
X138676664Y-97391529D01*
X138689290Y-97383961D01*
X138702597Y-97377667D01*
X138716457Y-97372708D01*
X138730736Y-97369131D01*
X138745297Y-97366971D01*
X138760000Y-97366249D01*
X139935000Y-97366249D01*
X139949703Y-97366971D01*
X139949703Y-97366971D01*
G37*
D11*
X139347500Y-97516250D03*
D10*
G36*
X139949703Y-97866971D02*
G01*
X139964264Y-97869131D01*
X139978543Y-97872708D01*
X139992403Y-97877667D01*
X140005710Y-97883961D01*
X140018336Y-97891529D01*
X140030159Y-97900297D01*
X140041066Y-97910183D01*
X140050952Y-97921090D01*
X140059720Y-97932913D01*
X140067288Y-97945539D01*
X140073582Y-97958846D01*
X140078541Y-97972706D01*
X140082118Y-97986985D01*
X140084278Y-98001546D01*
X140085000Y-98016249D01*
X140085000Y-98016251D01*
X140084278Y-98030954D01*
X140082118Y-98045515D01*
X140078541Y-98059794D01*
X140073582Y-98073654D01*
X140067288Y-98086961D01*
X140059720Y-98099587D01*
X140050952Y-98111410D01*
X140041066Y-98122317D01*
X140030159Y-98132203D01*
X140018336Y-98140971D01*
X140005710Y-98148539D01*
X139992403Y-98154833D01*
X139978543Y-98159792D01*
X139964264Y-98163369D01*
X139949703Y-98165529D01*
X139935000Y-98166251D01*
X138760000Y-98166251D01*
X138745297Y-98165529D01*
X138730736Y-98163369D01*
X138716457Y-98159792D01*
X138702597Y-98154833D01*
X138689290Y-98148539D01*
X138676664Y-98140971D01*
X138664841Y-98132203D01*
X138653934Y-98122317D01*
X138644048Y-98111410D01*
X138635280Y-98099587D01*
X138627712Y-98086961D01*
X138621418Y-98073654D01*
X138616459Y-98059794D01*
X138612882Y-98045515D01*
X138610722Y-98030954D01*
X138610000Y-98016251D01*
X138610000Y-98016249D01*
X138610722Y-98001546D01*
X138612882Y-97986985D01*
X138616459Y-97972706D01*
X138621418Y-97958846D01*
X138627712Y-97945539D01*
X138635280Y-97932913D01*
X138644048Y-97921090D01*
X138653934Y-97910183D01*
X138664841Y-97900297D01*
X138676664Y-97891529D01*
X138689290Y-97883961D01*
X138702597Y-97877667D01*
X138716457Y-97872708D01*
X138730736Y-97869131D01*
X138745297Y-97866971D01*
X138760000Y-97866249D01*
X139935000Y-97866249D01*
X139949703Y-97866971D01*
X139949703Y-97866971D01*
G37*
D11*
X139347500Y-98016250D03*
D10*
G36*
X139949703Y-98366971D02*
G01*
X139964264Y-98369131D01*
X139978543Y-98372708D01*
X139992403Y-98377667D01*
X140005710Y-98383961D01*
X140018336Y-98391529D01*
X140030159Y-98400297D01*
X140041066Y-98410183D01*
X140050952Y-98421090D01*
X140059720Y-98432913D01*
X140067288Y-98445539D01*
X140073582Y-98458846D01*
X140078541Y-98472706D01*
X140082118Y-98486985D01*
X140084278Y-98501546D01*
X140085000Y-98516249D01*
X140085000Y-98516251D01*
X140084278Y-98530954D01*
X140082118Y-98545515D01*
X140078541Y-98559794D01*
X140073582Y-98573654D01*
X140067288Y-98586961D01*
X140059720Y-98599587D01*
X140050952Y-98611410D01*
X140041066Y-98622317D01*
X140030159Y-98632203D01*
X140018336Y-98640971D01*
X140005710Y-98648539D01*
X139992403Y-98654833D01*
X139978543Y-98659792D01*
X139964264Y-98663369D01*
X139949703Y-98665529D01*
X139935000Y-98666251D01*
X138760000Y-98666251D01*
X138745297Y-98665529D01*
X138730736Y-98663369D01*
X138716457Y-98659792D01*
X138702597Y-98654833D01*
X138689290Y-98648539D01*
X138676664Y-98640971D01*
X138664841Y-98632203D01*
X138653934Y-98622317D01*
X138644048Y-98611410D01*
X138635280Y-98599587D01*
X138627712Y-98586961D01*
X138621418Y-98573654D01*
X138616459Y-98559794D01*
X138612882Y-98545515D01*
X138610722Y-98530954D01*
X138610000Y-98516251D01*
X138610000Y-98516249D01*
X138610722Y-98501546D01*
X138612882Y-98486985D01*
X138616459Y-98472706D01*
X138621418Y-98458846D01*
X138627712Y-98445539D01*
X138635280Y-98432913D01*
X138644048Y-98421090D01*
X138653934Y-98410183D01*
X138664841Y-98400297D01*
X138676664Y-98391529D01*
X138689290Y-98383961D01*
X138702597Y-98377667D01*
X138716457Y-98372708D01*
X138730736Y-98369131D01*
X138745297Y-98366971D01*
X138760000Y-98366249D01*
X139935000Y-98366249D01*
X139949703Y-98366971D01*
X139949703Y-98366971D01*
G37*
D11*
X139347500Y-98516250D03*
D10*
G36*
X139949703Y-98866971D02*
G01*
X139964264Y-98869131D01*
X139978543Y-98872708D01*
X139992403Y-98877667D01*
X140005710Y-98883961D01*
X140018336Y-98891529D01*
X140030159Y-98900297D01*
X140041066Y-98910183D01*
X140050952Y-98921090D01*
X140059720Y-98932913D01*
X140067288Y-98945539D01*
X140073582Y-98958846D01*
X140078541Y-98972706D01*
X140082118Y-98986985D01*
X140084278Y-99001546D01*
X140085000Y-99016249D01*
X140085000Y-99016251D01*
X140084278Y-99030954D01*
X140082118Y-99045515D01*
X140078541Y-99059794D01*
X140073582Y-99073654D01*
X140067288Y-99086961D01*
X140059720Y-99099587D01*
X140050952Y-99111410D01*
X140041066Y-99122317D01*
X140030159Y-99132203D01*
X140018336Y-99140971D01*
X140005710Y-99148539D01*
X139992403Y-99154833D01*
X139978543Y-99159792D01*
X139964264Y-99163369D01*
X139949703Y-99165529D01*
X139935000Y-99166251D01*
X138760000Y-99166251D01*
X138745297Y-99165529D01*
X138730736Y-99163369D01*
X138716457Y-99159792D01*
X138702597Y-99154833D01*
X138689290Y-99148539D01*
X138676664Y-99140971D01*
X138664841Y-99132203D01*
X138653934Y-99122317D01*
X138644048Y-99111410D01*
X138635280Y-99099587D01*
X138627712Y-99086961D01*
X138621418Y-99073654D01*
X138616459Y-99059794D01*
X138612882Y-99045515D01*
X138610722Y-99030954D01*
X138610000Y-99016251D01*
X138610000Y-99016249D01*
X138610722Y-99001546D01*
X138612882Y-98986985D01*
X138616459Y-98972706D01*
X138621418Y-98958846D01*
X138627712Y-98945539D01*
X138635280Y-98932913D01*
X138644048Y-98921090D01*
X138653934Y-98910183D01*
X138664841Y-98900297D01*
X138676664Y-98891529D01*
X138689290Y-98883961D01*
X138702597Y-98877667D01*
X138716457Y-98872708D01*
X138730736Y-98869131D01*
X138745297Y-98866971D01*
X138760000Y-98866249D01*
X139935000Y-98866249D01*
X139949703Y-98866971D01*
X139949703Y-98866971D01*
G37*
D11*
X139347500Y-99016250D03*
D10*
G36*
X139949703Y-99366971D02*
G01*
X139964264Y-99369131D01*
X139978543Y-99372708D01*
X139992403Y-99377667D01*
X140005710Y-99383961D01*
X140018336Y-99391529D01*
X140030159Y-99400297D01*
X140041066Y-99410183D01*
X140050952Y-99421090D01*
X140059720Y-99432913D01*
X140067288Y-99445539D01*
X140073582Y-99458846D01*
X140078541Y-99472706D01*
X140082118Y-99486985D01*
X140084278Y-99501546D01*
X140085000Y-99516249D01*
X140085000Y-99516251D01*
X140084278Y-99530954D01*
X140082118Y-99545515D01*
X140078541Y-99559794D01*
X140073582Y-99573654D01*
X140067288Y-99586961D01*
X140059720Y-99599587D01*
X140050952Y-99611410D01*
X140041066Y-99622317D01*
X140030159Y-99632203D01*
X140018336Y-99640971D01*
X140005710Y-99648539D01*
X139992403Y-99654833D01*
X139978543Y-99659792D01*
X139964264Y-99663369D01*
X139949703Y-99665529D01*
X139935000Y-99666251D01*
X138760000Y-99666251D01*
X138745297Y-99665529D01*
X138730736Y-99663369D01*
X138716457Y-99659792D01*
X138702597Y-99654833D01*
X138689290Y-99648539D01*
X138676664Y-99640971D01*
X138664841Y-99632203D01*
X138653934Y-99622317D01*
X138644048Y-99611410D01*
X138635280Y-99599587D01*
X138627712Y-99586961D01*
X138621418Y-99573654D01*
X138616459Y-99559794D01*
X138612882Y-99545515D01*
X138610722Y-99530954D01*
X138610000Y-99516251D01*
X138610000Y-99516249D01*
X138610722Y-99501546D01*
X138612882Y-99486985D01*
X138616459Y-99472706D01*
X138621418Y-99458846D01*
X138627712Y-99445539D01*
X138635280Y-99432913D01*
X138644048Y-99421090D01*
X138653934Y-99410183D01*
X138664841Y-99400297D01*
X138676664Y-99391529D01*
X138689290Y-99383961D01*
X138702597Y-99377667D01*
X138716457Y-99372708D01*
X138730736Y-99369131D01*
X138745297Y-99366971D01*
X138760000Y-99366249D01*
X139935000Y-99366249D01*
X139949703Y-99366971D01*
X139949703Y-99366971D01*
G37*
D11*
X139347500Y-99516250D03*
D10*
G36*
X139949703Y-99866971D02*
G01*
X139964264Y-99869131D01*
X139978543Y-99872708D01*
X139992403Y-99877667D01*
X140005710Y-99883961D01*
X140018336Y-99891529D01*
X140030159Y-99900297D01*
X140041066Y-99910183D01*
X140050952Y-99921090D01*
X140059720Y-99932913D01*
X140067288Y-99945539D01*
X140073582Y-99958846D01*
X140078541Y-99972706D01*
X140082118Y-99986985D01*
X140084278Y-100001546D01*
X140085000Y-100016249D01*
X140085000Y-100016251D01*
X140084278Y-100030954D01*
X140082118Y-100045515D01*
X140078541Y-100059794D01*
X140073582Y-100073654D01*
X140067288Y-100086961D01*
X140059720Y-100099587D01*
X140050952Y-100111410D01*
X140041066Y-100122317D01*
X140030159Y-100132203D01*
X140018336Y-100140971D01*
X140005710Y-100148539D01*
X139992403Y-100154833D01*
X139978543Y-100159792D01*
X139964264Y-100163369D01*
X139949703Y-100165529D01*
X139935000Y-100166251D01*
X138760000Y-100166251D01*
X138745297Y-100165529D01*
X138730736Y-100163369D01*
X138716457Y-100159792D01*
X138702597Y-100154833D01*
X138689290Y-100148539D01*
X138676664Y-100140971D01*
X138664841Y-100132203D01*
X138653934Y-100122317D01*
X138644048Y-100111410D01*
X138635280Y-100099587D01*
X138627712Y-100086961D01*
X138621418Y-100073654D01*
X138616459Y-100059794D01*
X138612882Y-100045515D01*
X138610722Y-100030954D01*
X138610000Y-100016251D01*
X138610000Y-100016249D01*
X138610722Y-100001546D01*
X138612882Y-99986985D01*
X138616459Y-99972706D01*
X138621418Y-99958846D01*
X138627712Y-99945539D01*
X138635280Y-99932913D01*
X138644048Y-99921090D01*
X138653934Y-99910183D01*
X138664841Y-99900297D01*
X138676664Y-99891529D01*
X138689290Y-99883961D01*
X138702597Y-99877667D01*
X138716457Y-99872708D01*
X138730736Y-99869131D01*
X138745297Y-99866971D01*
X138760000Y-99866249D01*
X139935000Y-99866249D01*
X139949703Y-99866971D01*
X139949703Y-99866971D01*
G37*
D11*
X139347500Y-100016250D03*
D10*
G36*
X139949703Y-100366971D02*
G01*
X139964264Y-100369131D01*
X139978543Y-100372708D01*
X139992403Y-100377667D01*
X140005710Y-100383961D01*
X140018336Y-100391529D01*
X140030159Y-100400297D01*
X140041066Y-100410183D01*
X140050952Y-100421090D01*
X140059720Y-100432913D01*
X140067288Y-100445539D01*
X140073582Y-100458846D01*
X140078541Y-100472706D01*
X140082118Y-100486985D01*
X140084278Y-100501546D01*
X140085000Y-100516249D01*
X140085000Y-100516251D01*
X140084278Y-100530954D01*
X140082118Y-100545515D01*
X140078541Y-100559794D01*
X140073582Y-100573654D01*
X140067288Y-100586961D01*
X140059720Y-100599587D01*
X140050952Y-100611410D01*
X140041066Y-100622317D01*
X140030159Y-100632203D01*
X140018336Y-100640971D01*
X140005710Y-100648539D01*
X139992403Y-100654833D01*
X139978543Y-100659792D01*
X139964264Y-100663369D01*
X139949703Y-100665529D01*
X139935000Y-100666251D01*
X138760000Y-100666251D01*
X138745297Y-100665529D01*
X138730736Y-100663369D01*
X138716457Y-100659792D01*
X138702597Y-100654833D01*
X138689290Y-100648539D01*
X138676664Y-100640971D01*
X138664841Y-100632203D01*
X138653934Y-100622317D01*
X138644048Y-100611410D01*
X138635280Y-100599587D01*
X138627712Y-100586961D01*
X138621418Y-100573654D01*
X138616459Y-100559794D01*
X138612882Y-100545515D01*
X138610722Y-100530954D01*
X138610000Y-100516251D01*
X138610000Y-100516249D01*
X138610722Y-100501546D01*
X138612882Y-100486985D01*
X138616459Y-100472706D01*
X138621418Y-100458846D01*
X138627712Y-100445539D01*
X138635280Y-100432913D01*
X138644048Y-100421090D01*
X138653934Y-100410183D01*
X138664841Y-100400297D01*
X138676664Y-100391529D01*
X138689290Y-100383961D01*
X138702597Y-100377667D01*
X138716457Y-100372708D01*
X138730736Y-100369131D01*
X138745297Y-100366971D01*
X138760000Y-100366249D01*
X139935000Y-100366249D01*
X139949703Y-100366971D01*
X139949703Y-100366971D01*
G37*
D11*
X139347500Y-100516250D03*
D10*
G36*
X139949703Y-100866971D02*
G01*
X139964264Y-100869131D01*
X139978543Y-100872708D01*
X139992403Y-100877667D01*
X140005710Y-100883961D01*
X140018336Y-100891529D01*
X140030159Y-100900297D01*
X140041066Y-100910183D01*
X140050952Y-100921090D01*
X140059720Y-100932913D01*
X140067288Y-100945539D01*
X140073582Y-100958846D01*
X140078541Y-100972706D01*
X140082118Y-100986985D01*
X140084278Y-101001546D01*
X140085000Y-101016249D01*
X140085000Y-101016251D01*
X140084278Y-101030954D01*
X140082118Y-101045515D01*
X140078541Y-101059794D01*
X140073582Y-101073654D01*
X140067288Y-101086961D01*
X140059720Y-101099587D01*
X140050952Y-101111410D01*
X140041066Y-101122317D01*
X140030159Y-101132203D01*
X140018336Y-101140971D01*
X140005710Y-101148539D01*
X139992403Y-101154833D01*
X139978543Y-101159792D01*
X139964264Y-101163369D01*
X139949703Y-101165529D01*
X139935000Y-101166251D01*
X138760000Y-101166251D01*
X138745297Y-101165529D01*
X138730736Y-101163369D01*
X138716457Y-101159792D01*
X138702597Y-101154833D01*
X138689290Y-101148539D01*
X138676664Y-101140971D01*
X138664841Y-101132203D01*
X138653934Y-101122317D01*
X138644048Y-101111410D01*
X138635280Y-101099587D01*
X138627712Y-101086961D01*
X138621418Y-101073654D01*
X138616459Y-101059794D01*
X138612882Y-101045515D01*
X138610722Y-101030954D01*
X138610000Y-101016251D01*
X138610000Y-101016249D01*
X138610722Y-101001546D01*
X138612882Y-100986985D01*
X138616459Y-100972706D01*
X138621418Y-100958846D01*
X138627712Y-100945539D01*
X138635280Y-100932913D01*
X138644048Y-100921090D01*
X138653934Y-100910183D01*
X138664841Y-100900297D01*
X138676664Y-100891529D01*
X138689290Y-100883961D01*
X138702597Y-100877667D01*
X138716457Y-100872708D01*
X138730736Y-100869131D01*
X138745297Y-100866971D01*
X138760000Y-100866249D01*
X139935000Y-100866249D01*
X139949703Y-100866971D01*
X139949703Y-100866971D01*
G37*
D11*
X139347500Y-101016250D03*
D10*
G36*
X140774704Y-101691972D02*
G01*
X140789265Y-101694132D01*
X140803544Y-101697709D01*
X140817404Y-101702668D01*
X140830711Y-101708962D01*
X140843337Y-101716530D01*
X140855160Y-101725298D01*
X140866067Y-101735184D01*
X140875953Y-101746091D01*
X140884721Y-101757914D01*
X140892289Y-101770540D01*
X140898583Y-101783847D01*
X140903542Y-101797707D01*
X140907119Y-101811986D01*
X140909279Y-101826547D01*
X140910001Y-101841250D01*
X140910001Y-103016250D01*
X140909279Y-103030953D01*
X140907119Y-103045514D01*
X140903542Y-103059793D01*
X140898583Y-103073653D01*
X140892289Y-103086960D01*
X140884721Y-103099586D01*
X140875953Y-103111409D01*
X140866067Y-103122316D01*
X140855160Y-103132202D01*
X140843337Y-103140970D01*
X140830711Y-103148538D01*
X140817404Y-103154832D01*
X140803544Y-103159791D01*
X140789265Y-103163368D01*
X140774704Y-103165528D01*
X140760001Y-103166250D01*
X140759999Y-103166250D01*
X140745296Y-103165528D01*
X140730735Y-103163368D01*
X140716456Y-103159791D01*
X140702596Y-103154832D01*
X140689289Y-103148538D01*
X140676663Y-103140970D01*
X140664840Y-103132202D01*
X140653933Y-103122316D01*
X140644047Y-103111409D01*
X140635279Y-103099586D01*
X140627711Y-103086960D01*
X140621417Y-103073653D01*
X140616458Y-103059793D01*
X140612881Y-103045514D01*
X140610721Y-103030953D01*
X140609999Y-103016250D01*
X140609999Y-101841250D01*
X140610721Y-101826547D01*
X140612881Y-101811986D01*
X140616458Y-101797707D01*
X140621417Y-101783847D01*
X140627711Y-101770540D01*
X140635279Y-101757914D01*
X140644047Y-101746091D01*
X140653933Y-101735184D01*
X140664840Y-101725298D01*
X140676663Y-101716530D01*
X140689289Y-101708962D01*
X140702596Y-101702668D01*
X140716456Y-101697709D01*
X140730735Y-101694132D01*
X140745296Y-101691972D01*
X140759999Y-101691250D01*
X140760001Y-101691250D01*
X140774704Y-101691972D01*
X140774704Y-101691972D01*
G37*
D11*
X140760000Y-102428750D03*
D10*
G36*
X141274704Y-101691972D02*
G01*
X141289265Y-101694132D01*
X141303544Y-101697709D01*
X141317404Y-101702668D01*
X141330711Y-101708962D01*
X141343337Y-101716530D01*
X141355160Y-101725298D01*
X141366067Y-101735184D01*
X141375953Y-101746091D01*
X141384721Y-101757914D01*
X141392289Y-101770540D01*
X141398583Y-101783847D01*
X141403542Y-101797707D01*
X141407119Y-101811986D01*
X141409279Y-101826547D01*
X141410001Y-101841250D01*
X141410001Y-103016250D01*
X141409279Y-103030953D01*
X141407119Y-103045514D01*
X141403542Y-103059793D01*
X141398583Y-103073653D01*
X141392289Y-103086960D01*
X141384721Y-103099586D01*
X141375953Y-103111409D01*
X141366067Y-103122316D01*
X141355160Y-103132202D01*
X141343337Y-103140970D01*
X141330711Y-103148538D01*
X141317404Y-103154832D01*
X141303544Y-103159791D01*
X141289265Y-103163368D01*
X141274704Y-103165528D01*
X141260001Y-103166250D01*
X141259999Y-103166250D01*
X141245296Y-103165528D01*
X141230735Y-103163368D01*
X141216456Y-103159791D01*
X141202596Y-103154832D01*
X141189289Y-103148538D01*
X141176663Y-103140970D01*
X141164840Y-103132202D01*
X141153933Y-103122316D01*
X141144047Y-103111409D01*
X141135279Y-103099586D01*
X141127711Y-103086960D01*
X141121417Y-103073653D01*
X141116458Y-103059793D01*
X141112881Y-103045514D01*
X141110721Y-103030953D01*
X141109999Y-103016250D01*
X141109999Y-101841250D01*
X141110721Y-101826547D01*
X141112881Y-101811986D01*
X141116458Y-101797707D01*
X141121417Y-101783847D01*
X141127711Y-101770540D01*
X141135279Y-101757914D01*
X141144047Y-101746091D01*
X141153933Y-101735184D01*
X141164840Y-101725298D01*
X141176663Y-101716530D01*
X141189289Y-101708962D01*
X141202596Y-101702668D01*
X141216456Y-101697709D01*
X141230735Y-101694132D01*
X141245296Y-101691972D01*
X141259999Y-101691250D01*
X141260001Y-101691250D01*
X141274704Y-101691972D01*
X141274704Y-101691972D01*
G37*
D11*
X141260000Y-102428750D03*
D10*
G36*
X141774704Y-101691972D02*
G01*
X141789265Y-101694132D01*
X141803544Y-101697709D01*
X141817404Y-101702668D01*
X141830711Y-101708962D01*
X141843337Y-101716530D01*
X141855160Y-101725298D01*
X141866067Y-101735184D01*
X141875953Y-101746091D01*
X141884721Y-101757914D01*
X141892289Y-101770540D01*
X141898583Y-101783847D01*
X141903542Y-101797707D01*
X141907119Y-101811986D01*
X141909279Y-101826547D01*
X141910001Y-101841250D01*
X141910001Y-103016250D01*
X141909279Y-103030953D01*
X141907119Y-103045514D01*
X141903542Y-103059793D01*
X141898583Y-103073653D01*
X141892289Y-103086960D01*
X141884721Y-103099586D01*
X141875953Y-103111409D01*
X141866067Y-103122316D01*
X141855160Y-103132202D01*
X141843337Y-103140970D01*
X141830711Y-103148538D01*
X141817404Y-103154832D01*
X141803544Y-103159791D01*
X141789265Y-103163368D01*
X141774704Y-103165528D01*
X141760001Y-103166250D01*
X141759999Y-103166250D01*
X141745296Y-103165528D01*
X141730735Y-103163368D01*
X141716456Y-103159791D01*
X141702596Y-103154832D01*
X141689289Y-103148538D01*
X141676663Y-103140970D01*
X141664840Y-103132202D01*
X141653933Y-103122316D01*
X141644047Y-103111409D01*
X141635279Y-103099586D01*
X141627711Y-103086960D01*
X141621417Y-103073653D01*
X141616458Y-103059793D01*
X141612881Y-103045514D01*
X141610721Y-103030953D01*
X141609999Y-103016250D01*
X141609999Y-101841250D01*
X141610721Y-101826547D01*
X141612881Y-101811986D01*
X141616458Y-101797707D01*
X141621417Y-101783847D01*
X141627711Y-101770540D01*
X141635279Y-101757914D01*
X141644047Y-101746091D01*
X141653933Y-101735184D01*
X141664840Y-101725298D01*
X141676663Y-101716530D01*
X141689289Y-101708962D01*
X141702596Y-101702668D01*
X141716456Y-101697709D01*
X141730735Y-101694132D01*
X141745296Y-101691972D01*
X141759999Y-101691250D01*
X141760001Y-101691250D01*
X141774704Y-101691972D01*
X141774704Y-101691972D01*
G37*
D11*
X141760000Y-102428750D03*
D10*
G36*
X142274704Y-101691972D02*
G01*
X142289265Y-101694132D01*
X142303544Y-101697709D01*
X142317404Y-101702668D01*
X142330711Y-101708962D01*
X142343337Y-101716530D01*
X142355160Y-101725298D01*
X142366067Y-101735184D01*
X142375953Y-101746091D01*
X142384721Y-101757914D01*
X142392289Y-101770540D01*
X142398583Y-101783847D01*
X142403542Y-101797707D01*
X142407119Y-101811986D01*
X142409279Y-101826547D01*
X142410001Y-101841250D01*
X142410001Y-103016250D01*
X142409279Y-103030953D01*
X142407119Y-103045514D01*
X142403542Y-103059793D01*
X142398583Y-103073653D01*
X142392289Y-103086960D01*
X142384721Y-103099586D01*
X142375953Y-103111409D01*
X142366067Y-103122316D01*
X142355160Y-103132202D01*
X142343337Y-103140970D01*
X142330711Y-103148538D01*
X142317404Y-103154832D01*
X142303544Y-103159791D01*
X142289265Y-103163368D01*
X142274704Y-103165528D01*
X142260001Y-103166250D01*
X142259999Y-103166250D01*
X142245296Y-103165528D01*
X142230735Y-103163368D01*
X142216456Y-103159791D01*
X142202596Y-103154832D01*
X142189289Y-103148538D01*
X142176663Y-103140970D01*
X142164840Y-103132202D01*
X142153933Y-103122316D01*
X142144047Y-103111409D01*
X142135279Y-103099586D01*
X142127711Y-103086960D01*
X142121417Y-103073653D01*
X142116458Y-103059793D01*
X142112881Y-103045514D01*
X142110721Y-103030953D01*
X142109999Y-103016250D01*
X142109999Y-101841250D01*
X142110721Y-101826547D01*
X142112881Y-101811986D01*
X142116458Y-101797707D01*
X142121417Y-101783847D01*
X142127711Y-101770540D01*
X142135279Y-101757914D01*
X142144047Y-101746091D01*
X142153933Y-101735184D01*
X142164840Y-101725298D01*
X142176663Y-101716530D01*
X142189289Y-101708962D01*
X142202596Y-101702668D01*
X142216456Y-101697709D01*
X142230735Y-101694132D01*
X142245296Y-101691972D01*
X142259999Y-101691250D01*
X142260001Y-101691250D01*
X142274704Y-101691972D01*
X142274704Y-101691972D01*
G37*
D11*
X142260000Y-102428750D03*
D10*
G36*
X142774704Y-101691972D02*
G01*
X142789265Y-101694132D01*
X142803544Y-101697709D01*
X142817404Y-101702668D01*
X142830711Y-101708962D01*
X142843337Y-101716530D01*
X142855160Y-101725298D01*
X142866067Y-101735184D01*
X142875953Y-101746091D01*
X142884721Y-101757914D01*
X142892289Y-101770540D01*
X142898583Y-101783847D01*
X142903542Y-101797707D01*
X142907119Y-101811986D01*
X142909279Y-101826547D01*
X142910001Y-101841250D01*
X142910001Y-103016250D01*
X142909279Y-103030953D01*
X142907119Y-103045514D01*
X142903542Y-103059793D01*
X142898583Y-103073653D01*
X142892289Y-103086960D01*
X142884721Y-103099586D01*
X142875953Y-103111409D01*
X142866067Y-103122316D01*
X142855160Y-103132202D01*
X142843337Y-103140970D01*
X142830711Y-103148538D01*
X142817404Y-103154832D01*
X142803544Y-103159791D01*
X142789265Y-103163368D01*
X142774704Y-103165528D01*
X142760001Y-103166250D01*
X142759999Y-103166250D01*
X142745296Y-103165528D01*
X142730735Y-103163368D01*
X142716456Y-103159791D01*
X142702596Y-103154832D01*
X142689289Y-103148538D01*
X142676663Y-103140970D01*
X142664840Y-103132202D01*
X142653933Y-103122316D01*
X142644047Y-103111409D01*
X142635279Y-103099586D01*
X142627711Y-103086960D01*
X142621417Y-103073653D01*
X142616458Y-103059793D01*
X142612881Y-103045514D01*
X142610721Y-103030953D01*
X142609999Y-103016250D01*
X142609999Y-101841250D01*
X142610721Y-101826547D01*
X142612881Y-101811986D01*
X142616458Y-101797707D01*
X142621417Y-101783847D01*
X142627711Y-101770540D01*
X142635279Y-101757914D01*
X142644047Y-101746091D01*
X142653933Y-101735184D01*
X142664840Y-101725298D01*
X142676663Y-101716530D01*
X142689289Y-101708962D01*
X142702596Y-101702668D01*
X142716456Y-101697709D01*
X142730735Y-101694132D01*
X142745296Y-101691972D01*
X142759999Y-101691250D01*
X142760001Y-101691250D01*
X142774704Y-101691972D01*
X142774704Y-101691972D01*
G37*
D11*
X142760000Y-102428750D03*
D10*
G36*
X143274704Y-101691972D02*
G01*
X143289265Y-101694132D01*
X143303544Y-101697709D01*
X143317404Y-101702668D01*
X143330711Y-101708962D01*
X143343337Y-101716530D01*
X143355160Y-101725298D01*
X143366067Y-101735184D01*
X143375953Y-101746091D01*
X143384721Y-101757914D01*
X143392289Y-101770540D01*
X143398583Y-101783847D01*
X143403542Y-101797707D01*
X143407119Y-101811986D01*
X143409279Y-101826547D01*
X143410001Y-101841250D01*
X143410001Y-103016250D01*
X143409279Y-103030953D01*
X143407119Y-103045514D01*
X143403542Y-103059793D01*
X143398583Y-103073653D01*
X143392289Y-103086960D01*
X143384721Y-103099586D01*
X143375953Y-103111409D01*
X143366067Y-103122316D01*
X143355160Y-103132202D01*
X143343337Y-103140970D01*
X143330711Y-103148538D01*
X143317404Y-103154832D01*
X143303544Y-103159791D01*
X143289265Y-103163368D01*
X143274704Y-103165528D01*
X143260001Y-103166250D01*
X143259999Y-103166250D01*
X143245296Y-103165528D01*
X143230735Y-103163368D01*
X143216456Y-103159791D01*
X143202596Y-103154832D01*
X143189289Y-103148538D01*
X143176663Y-103140970D01*
X143164840Y-103132202D01*
X143153933Y-103122316D01*
X143144047Y-103111409D01*
X143135279Y-103099586D01*
X143127711Y-103086960D01*
X143121417Y-103073653D01*
X143116458Y-103059793D01*
X143112881Y-103045514D01*
X143110721Y-103030953D01*
X143109999Y-103016250D01*
X143109999Y-101841250D01*
X143110721Y-101826547D01*
X143112881Y-101811986D01*
X143116458Y-101797707D01*
X143121417Y-101783847D01*
X143127711Y-101770540D01*
X143135279Y-101757914D01*
X143144047Y-101746091D01*
X143153933Y-101735184D01*
X143164840Y-101725298D01*
X143176663Y-101716530D01*
X143189289Y-101708962D01*
X143202596Y-101702668D01*
X143216456Y-101697709D01*
X143230735Y-101694132D01*
X143245296Y-101691972D01*
X143259999Y-101691250D01*
X143260001Y-101691250D01*
X143274704Y-101691972D01*
X143274704Y-101691972D01*
G37*
D11*
X143260000Y-102428750D03*
D10*
G36*
X143774704Y-101691972D02*
G01*
X143789265Y-101694132D01*
X143803544Y-101697709D01*
X143817404Y-101702668D01*
X143830711Y-101708962D01*
X143843337Y-101716530D01*
X143855160Y-101725298D01*
X143866067Y-101735184D01*
X143875953Y-101746091D01*
X143884721Y-101757914D01*
X143892289Y-101770540D01*
X143898583Y-101783847D01*
X143903542Y-101797707D01*
X143907119Y-101811986D01*
X143909279Y-101826547D01*
X143910001Y-101841250D01*
X143910001Y-103016250D01*
X143909279Y-103030953D01*
X143907119Y-103045514D01*
X143903542Y-103059793D01*
X143898583Y-103073653D01*
X143892289Y-103086960D01*
X143884721Y-103099586D01*
X143875953Y-103111409D01*
X143866067Y-103122316D01*
X143855160Y-103132202D01*
X143843337Y-103140970D01*
X143830711Y-103148538D01*
X143817404Y-103154832D01*
X143803544Y-103159791D01*
X143789265Y-103163368D01*
X143774704Y-103165528D01*
X143760001Y-103166250D01*
X143759999Y-103166250D01*
X143745296Y-103165528D01*
X143730735Y-103163368D01*
X143716456Y-103159791D01*
X143702596Y-103154832D01*
X143689289Y-103148538D01*
X143676663Y-103140970D01*
X143664840Y-103132202D01*
X143653933Y-103122316D01*
X143644047Y-103111409D01*
X143635279Y-103099586D01*
X143627711Y-103086960D01*
X143621417Y-103073653D01*
X143616458Y-103059793D01*
X143612881Y-103045514D01*
X143610721Y-103030953D01*
X143609999Y-103016250D01*
X143609999Y-101841250D01*
X143610721Y-101826547D01*
X143612881Y-101811986D01*
X143616458Y-101797707D01*
X143621417Y-101783847D01*
X143627711Y-101770540D01*
X143635279Y-101757914D01*
X143644047Y-101746091D01*
X143653933Y-101735184D01*
X143664840Y-101725298D01*
X143676663Y-101716530D01*
X143689289Y-101708962D01*
X143702596Y-101702668D01*
X143716456Y-101697709D01*
X143730735Y-101694132D01*
X143745296Y-101691972D01*
X143759999Y-101691250D01*
X143760001Y-101691250D01*
X143774704Y-101691972D01*
X143774704Y-101691972D01*
G37*
D11*
X143760000Y-102428750D03*
D10*
G36*
X144274704Y-101691972D02*
G01*
X144289265Y-101694132D01*
X144303544Y-101697709D01*
X144317404Y-101702668D01*
X144330711Y-101708962D01*
X144343337Y-101716530D01*
X144355160Y-101725298D01*
X144366067Y-101735184D01*
X144375953Y-101746091D01*
X144384721Y-101757914D01*
X144392289Y-101770540D01*
X144398583Y-101783847D01*
X144403542Y-101797707D01*
X144407119Y-101811986D01*
X144409279Y-101826547D01*
X144410001Y-101841250D01*
X144410001Y-103016250D01*
X144409279Y-103030953D01*
X144407119Y-103045514D01*
X144403542Y-103059793D01*
X144398583Y-103073653D01*
X144392289Y-103086960D01*
X144384721Y-103099586D01*
X144375953Y-103111409D01*
X144366067Y-103122316D01*
X144355160Y-103132202D01*
X144343337Y-103140970D01*
X144330711Y-103148538D01*
X144317404Y-103154832D01*
X144303544Y-103159791D01*
X144289265Y-103163368D01*
X144274704Y-103165528D01*
X144260001Y-103166250D01*
X144259999Y-103166250D01*
X144245296Y-103165528D01*
X144230735Y-103163368D01*
X144216456Y-103159791D01*
X144202596Y-103154832D01*
X144189289Y-103148538D01*
X144176663Y-103140970D01*
X144164840Y-103132202D01*
X144153933Y-103122316D01*
X144144047Y-103111409D01*
X144135279Y-103099586D01*
X144127711Y-103086960D01*
X144121417Y-103073653D01*
X144116458Y-103059793D01*
X144112881Y-103045514D01*
X144110721Y-103030953D01*
X144109999Y-103016250D01*
X144109999Y-101841250D01*
X144110721Y-101826547D01*
X144112881Y-101811986D01*
X144116458Y-101797707D01*
X144121417Y-101783847D01*
X144127711Y-101770540D01*
X144135279Y-101757914D01*
X144144047Y-101746091D01*
X144153933Y-101735184D01*
X144164840Y-101725298D01*
X144176663Y-101716530D01*
X144189289Y-101708962D01*
X144202596Y-101702668D01*
X144216456Y-101697709D01*
X144230735Y-101694132D01*
X144245296Y-101691972D01*
X144259999Y-101691250D01*
X144260001Y-101691250D01*
X144274704Y-101691972D01*
X144274704Y-101691972D01*
G37*
D11*
X144260000Y-102428750D03*
D10*
G36*
X144774704Y-101691972D02*
G01*
X144789265Y-101694132D01*
X144803544Y-101697709D01*
X144817404Y-101702668D01*
X144830711Y-101708962D01*
X144843337Y-101716530D01*
X144855160Y-101725298D01*
X144866067Y-101735184D01*
X144875953Y-101746091D01*
X144884721Y-101757914D01*
X144892289Y-101770540D01*
X144898583Y-101783847D01*
X144903542Y-101797707D01*
X144907119Y-101811986D01*
X144909279Y-101826547D01*
X144910001Y-101841250D01*
X144910001Y-103016250D01*
X144909279Y-103030953D01*
X144907119Y-103045514D01*
X144903542Y-103059793D01*
X144898583Y-103073653D01*
X144892289Y-103086960D01*
X144884721Y-103099586D01*
X144875953Y-103111409D01*
X144866067Y-103122316D01*
X144855160Y-103132202D01*
X144843337Y-103140970D01*
X144830711Y-103148538D01*
X144817404Y-103154832D01*
X144803544Y-103159791D01*
X144789265Y-103163368D01*
X144774704Y-103165528D01*
X144760001Y-103166250D01*
X144759999Y-103166250D01*
X144745296Y-103165528D01*
X144730735Y-103163368D01*
X144716456Y-103159791D01*
X144702596Y-103154832D01*
X144689289Y-103148538D01*
X144676663Y-103140970D01*
X144664840Y-103132202D01*
X144653933Y-103122316D01*
X144644047Y-103111409D01*
X144635279Y-103099586D01*
X144627711Y-103086960D01*
X144621417Y-103073653D01*
X144616458Y-103059793D01*
X144612881Y-103045514D01*
X144610721Y-103030953D01*
X144609999Y-103016250D01*
X144609999Y-101841250D01*
X144610721Y-101826547D01*
X144612881Y-101811986D01*
X144616458Y-101797707D01*
X144621417Y-101783847D01*
X144627711Y-101770540D01*
X144635279Y-101757914D01*
X144644047Y-101746091D01*
X144653933Y-101735184D01*
X144664840Y-101725298D01*
X144676663Y-101716530D01*
X144689289Y-101708962D01*
X144702596Y-101702668D01*
X144716456Y-101697709D01*
X144730735Y-101694132D01*
X144745296Y-101691972D01*
X144759999Y-101691250D01*
X144760001Y-101691250D01*
X144774704Y-101691972D01*
X144774704Y-101691972D01*
G37*
D11*
X144760000Y-102428750D03*
D10*
G36*
X145274704Y-101691972D02*
G01*
X145289265Y-101694132D01*
X145303544Y-101697709D01*
X145317404Y-101702668D01*
X145330711Y-101708962D01*
X145343337Y-101716530D01*
X145355160Y-101725298D01*
X145366067Y-101735184D01*
X145375953Y-101746091D01*
X145384721Y-101757914D01*
X145392289Y-101770540D01*
X145398583Y-101783847D01*
X145403542Y-101797707D01*
X145407119Y-101811986D01*
X145409279Y-101826547D01*
X145410001Y-101841250D01*
X145410001Y-103016250D01*
X145409279Y-103030953D01*
X145407119Y-103045514D01*
X145403542Y-103059793D01*
X145398583Y-103073653D01*
X145392289Y-103086960D01*
X145384721Y-103099586D01*
X145375953Y-103111409D01*
X145366067Y-103122316D01*
X145355160Y-103132202D01*
X145343337Y-103140970D01*
X145330711Y-103148538D01*
X145317404Y-103154832D01*
X145303544Y-103159791D01*
X145289265Y-103163368D01*
X145274704Y-103165528D01*
X145260001Y-103166250D01*
X145259999Y-103166250D01*
X145245296Y-103165528D01*
X145230735Y-103163368D01*
X145216456Y-103159791D01*
X145202596Y-103154832D01*
X145189289Y-103148538D01*
X145176663Y-103140970D01*
X145164840Y-103132202D01*
X145153933Y-103122316D01*
X145144047Y-103111409D01*
X145135279Y-103099586D01*
X145127711Y-103086960D01*
X145121417Y-103073653D01*
X145116458Y-103059793D01*
X145112881Y-103045514D01*
X145110721Y-103030953D01*
X145109999Y-103016250D01*
X145109999Y-101841250D01*
X145110721Y-101826547D01*
X145112881Y-101811986D01*
X145116458Y-101797707D01*
X145121417Y-101783847D01*
X145127711Y-101770540D01*
X145135279Y-101757914D01*
X145144047Y-101746091D01*
X145153933Y-101735184D01*
X145164840Y-101725298D01*
X145176663Y-101716530D01*
X145189289Y-101708962D01*
X145202596Y-101702668D01*
X145216456Y-101697709D01*
X145230735Y-101694132D01*
X145245296Y-101691972D01*
X145259999Y-101691250D01*
X145260001Y-101691250D01*
X145274704Y-101691972D01*
X145274704Y-101691972D01*
G37*
D11*
X145260000Y-102428750D03*
D10*
G36*
X145774704Y-101691972D02*
G01*
X145789265Y-101694132D01*
X145803544Y-101697709D01*
X145817404Y-101702668D01*
X145830711Y-101708962D01*
X145843337Y-101716530D01*
X145855160Y-101725298D01*
X145866067Y-101735184D01*
X145875953Y-101746091D01*
X145884721Y-101757914D01*
X145892289Y-101770540D01*
X145898583Y-101783847D01*
X145903542Y-101797707D01*
X145907119Y-101811986D01*
X145909279Y-101826547D01*
X145910001Y-101841250D01*
X145910001Y-103016250D01*
X145909279Y-103030953D01*
X145907119Y-103045514D01*
X145903542Y-103059793D01*
X145898583Y-103073653D01*
X145892289Y-103086960D01*
X145884721Y-103099586D01*
X145875953Y-103111409D01*
X145866067Y-103122316D01*
X145855160Y-103132202D01*
X145843337Y-103140970D01*
X145830711Y-103148538D01*
X145817404Y-103154832D01*
X145803544Y-103159791D01*
X145789265Y-103163368D01*
X145774704Y-103165528D01*
X145760001Y-103166250D01*
X145759999Y-103166250D01*
X145745296Y-103165528D01*
X145730735Y-103163368D01*
X145716456Y-103159791D01*
X145702596Y-103154832D01*
X145689289Y-103148538D01*
X145676663Y-103140970D01*
X145664840Y-103132202D01*
X145653933Y-103122316D01*
X145644047Y-103111409D01*
X145635279Y-103099586D01*
X145627711Y-103086960D01*
X145621417Y-103073653D01*
X145616458Y-103059793D01*
X145612881Y-103045514D01*
X145610721Y-103030953D01*
X145609999Y-103016250D01*
X145609999Y-101841250D01*
X145610721Y-101826547D01*
X145612881Y-101811986D01*
X145616458Y-101797707D01*
X145621417Y-101783847D01*
X145627711Y-101770540D01*
X145635279Y-101757914D01*
X145644047Y-101746091D01*
X145653933Y-101735184D01*
X145664840Y-101725298D01*
X145676663Y-101716530D01*
X145689289Y-101708962D01*
X145702596Y-101702668D01*
X145716456Y-101697709D01*
X145730735Y-101694132D01*
X145745296Y-101691972D01*
X145759999Y-101691250D01*
X145760001Y-101691250D01*
X145774704Y-101691972D01*
X145774704Y-101691972D01*
G37*
D11*
X145760000Y-102428750D03*
D10*
G36*
X146274704Y-101691972D02*
G01*
X146289265Y-101694132D01*
X146303544Y-101697709D01*
X146317404Y-101702668D01*
X146330711Y-101708962D01*
X146343337Y-101716530D01*
X146355160Y-101725298D01*
X146366067Y-101735184D01*
X146375953Y-101746091D01*
X146384721Y-101757914D01*
X146392289Y-101770540D01*
X146398583Y-101783847D01*
X146403542Y-101797707D01*
X146407119Y-101811986D01*
X146409279Y-101826547D01*
X146410001Y-101841250D01*
X146410001Y-103016250D01*
X146409279Y-103030953D01*
X146407119Y-103045514D01*
X146403542Y-103059793D01*
X146398583Y-103073653D01*
X146392289Y-103086960D01*
X146384721Y-103099586D01*
X146375953Y-103111409D01*
X146366067Y-103122316D01*
X146355160Y-103132202D01*
X146343337Y-103140970D01*
X146330711Y-103148538D01*
X146317404Y-103154832D01*
X146303544Y-103159791D01*
X146289265Y-103163368D01*
X146274704Y-103165528D01*
X146260001Y-103166250D01*
X146259999Y-103166250D01*
X146245296Y-103165528D01*
X146230735Y-103163368D01*
X146216456Y-103159791D01*
X146202596Y-103154832D01*
X146189289Y-103148538D01*
X146176663Y-103140970D01*
X146164840Y-103132202D01*
X146153933Y-103122316D01*
X146144047Y-103111409D01*
X146135279Y-103099586D01*
X146127711Y-103086960D01*
X146121417Y-103073653D01*
X146116458Y-103059793D01*
X146112881Y-103045514D01*
X146110721Y-103030953D01*
X146109999Y-103016250D01*
X146109999Y-101841250D01*
X146110721Y-101826547D01*
X146112881Y-101811986D01*
X146116458Y-101797707D01*
X146121417Y-101783847D01*
X146127711Y-101770540D01*
X146135279Y-101757914D01*
X146144047Y-101746091D01*
X146153933Y-101735184D01*
X146164840Y-101725298D01*
X146176663Y-101716530D01*
X146189289Y-101708962D01*
X146202596Y-101702668D01*
X146216456Y-101697709D01*
X146230735Y-101694132D01*
X146245296Y-101691972D01*
X146259999Y-101691250D01*
X146260001Y-101691250D01*
X146274704Y-101691972D01*
X146274704Y-101691972D01*
G37*
D11*
X146260000Y-102428750D03*
D10*
G36*
X148274703Y-100866971D02*
G01*
X148289264Y-100869131D01*
X148303543Y-100872708D01*
X148317403Y-100877667D01*
X148330710Y-100883961D01*
X148343336Y-100891529D01*
X148355159Y-100900297D01*
X148366066Y-100910183D01*
X148375952Y-100921090D01*
X148384720Y-100932913D01*
X148392288Y-100945539D01*
X148398582Y-100958846D01*
X148403541Y-100972706D01*
X148407118Y-100986985D01*
X148409278Y-101001546D01*
X148410000Y-101016249D01*
X148410000Y-101016251D01*
X148409278Y-101030954D01*
X148407118Y-101045515D01*
X148403541Y-101059794D01*
X148398582Y-101073654D01*
X148392288Y-101086961D01*
X148384720Y-101099587D01*
X148375952Y-101111410D01*
X148366066Y-101122317D01*
X148355159Y-101132203D01*
X148343336Y-101140971D01*
X148330710Y-101148539D01*
X148317403Y-101154833D01*
X148303543Y-101159792D01*
X148289264Y-101163369D01*
X148274703Y-101165529D01*
X148260000Y-101166251D01*
X147085000Y-101166251D01*
X147070297Y-101165529D01*
X147055736Y-101163369D01*
X147041457Y-101159792D01*
X147027597Y-101154833D01*
X147014290Y-101148539D01*
X147001664Y-101140971D01*
X146989841Y-101132203D01*
X146978934Y-101122317D01*
X146969048Y-101111410D01*
X146960280Y-101099587D01*
X146952712Y-101086961D01*
X146946418Y-101073654D01*
X146941459Y-101059794D01*
X146937882Y-101045515D01*
X146935722Y-101030954D01*
X146935000Y-101016251D01*
X146935000Y-101016249D01*
X146935722Y-101001546D01*
X146937882Y-100986985D01*
X146941459Y-100972706D01*
X146946418Y-100958846D01*
X146952712Y-100945539D01*
X146960280Y-100932913D01*
X146969048Y-100921090D01*
X146978934Y-100910183D01*
X146989841Y-100900297D01*
X147001664Y-100891529D01*
X147014290Y-100883961D01*
X147027597Y-100877667D01*
X147041457Y-100872708D01*
X147055736Y-100869131D01*
X147070297Y-100866971D01*
X147085000Y-100866249D01*
X148260000Y-100866249D01*
X148274703Y-100866971D01*
X148274703Y-100866971D01*
G37*
D11*
X147672500Y-101016250D03*
D10*
G36*
X148274703Y-100366971D02*
G01*
X148289264Y-100369131D01*
X148303543Y-100372708D01*
X148317403Y-100377667D01*
X148330710Y-100383961D01*
X148343336Y-100391529D01*
X148355159Y-100400297D01*
X148366066Y-100410183D01*
X148375952Y-100421090D01*
X148384720Y-100432913D01*
X148392288Y-100445539D01*
X148398582Y-100458846D01*
X148403541Y-100472706D01*
X148407118Y-100486985D01*
X148409278Y-100501546D01*
X148410000Y-100516249D01*
X148410000Y-100516251D01*
X148409278Y-100530954D01*
X148407118Y-100545515D01*
X148403541Y-100559794D01*
X148398582Y-100573654D01*
X148392288Y-100586961D01*
X148384720Y-100599587D01*
X148375952Y-100611410D01*
X148366066Y-100622317D01*
X148355159Y-100632203D01*
X148343336Y-100640971D01*
X148330710Y-100648539D01*
X148317403Y-100654833D01*
X148303543Y-100659792D01*
X148289264Y-100663369D01*
X148274703Y-100665529D01*
X148260000Y-100666251D01*
X147085000Y-100666251D01*
X147070297Y-100665529D01*
X147055736Y-100663369D01*
X147041457Y-100659792D01*
X147027597Y-100654833D01*
X147014290Y-100648539D01*
X147001664Y-100640971D01*
X146989841Y-100632203D01*
X146978934Y-100622317D01*
X146969048Y-100611410D01*
X146960280Y-100599587D01*
X146952712Y-100586961D01*
X146946418Y-100573654D01*
X146941459Y-100559794D01*
X146937882Y-100545515D01*
X146935722Y-100530954D01*
X146935000Y-100516251D01*
X146935000Y-100516249D01*
X146935722Y-100501546D01*
X146937882Y-100486985D01*
X146941459Y-100472706D01*
X146946418Y-100458846D01*
X146952712Y-100445539D01*
X146960280Y-100432913D01*
X146969048Y-100421090D01*
X146978934Y-100410183D01*
X146989841Y-100400297D01*
X147001664Y-100391529D01*
X147014290Y-100383961D01*
X147027597Y-100377667D01*
X147041457Y-100372708D01*
X147055736Y-100369131D01*
X147070297Y-100366971D01*
X147085000Y-100366249D01*
X148260000Y-100366249D01*
X148274703Y-100366971D01*
X148274703Y-100366971D01*
G37*
D11*
X147672500Y-100516250D03*
D10*
G36*
X148274703Y-99866971D02*
G01*
X148289264Y-99869131D01*
X148303543Y-99872708D01*
X148317403Y-99877667D01*
X148330710Y-99883961D01*
X148343336Y-99891529D01*
X148355159Y-99900297D01*
X148366066Y-99910183D01*
X148375952Y-99921090D01*
X148384720Y-99932913D01*
X148392288Y-99945539D01*
X148398582Y-99958846D01*
X148403541Y-99972706D01*
X148407118Y-99986985D01*
X148409278Y-100001546D01*
X148410000Y-100016249D01*
X148410000Y-100016251D01*
X148409278Y-100030954D01*
X148407118Y-100045515D01*
X148403541Y-100059794D01*
X148398582Y-100073654D01*
X148392288Y-100086961D01*
X148384720Y-100099587D01*
X148375952Y-100111410D01*
X148366066Y-100122317D01*
X148355159Y-100132203D01*
X148343336Y-100140971D01*
X148330710Y-100148539D01*
X148317403Y-100154833D01*
X148303543Y-100159792D01*
X148289264Y-100163369D01*
X148274703Y-100165529D01*
X148260000Y-100166251D01*
X147085000Y-100166251D01*
X147070297Y-100165529D01*
X147055736Y-100163369D01*
X147041457Y-100159792D01*
X147027597Y-100154833D01*
X147014290Y-100148539D01*
X147001664Y-100140971D01*
X146989841Y-100132203D01*
X146978934Y-100122317D01*
X146969048Y-100111410D01*
X146960280Y-100099587D01*
X146952712Y-100086961D01*
X146946418Y-100073654D01*
X146941459Y-100059794D01*
X146937882Y-100045515D01*
X146935722Y-100030954D01*
X146935000Y-100016251D01*
X146935000Y-100016249D01*
X146935722Y-100001546D01*
X146937882Y-99986985D01*
X146941459Y-99972706D01*
X146946418Y-99958846D01*
X146952712Y-99945539D01*
X146960280Y-99932913D01*
X146969048Y-99921090D01*
X146978934Y-99910183D01*
X146989841Y-99900297D01*
X147001664Y-99891529D01*
X147014290Y-99883961D01*
X147027597Y-99877667D01*
X147041457Y-99872708D01*
X147055736Y-99869131D01*
X147070297Y-99866971D01*
X147085000Y-99866249D01*
X148260000Y-99866249D01*
X148274703Y-99866971D01*
X148274703Y-99866971D01*
G37*
D11*
X147672500Y-100016250D03*
D10*
G36*
X148274703Y-99366971D02*
G01*
X148289264Y-99369131D01*
X148303543Y-99372708D01*
X148317403Y-99377667D01*
X148330710Y-99383961D01*
X148343336Y-99391529D01*
X148355159Y-99400297D01*
X148366066Y-99410183D01*
X148375952Y-99421090D01*
X148384720Y-99432913D01*
X148392288Y-99445539D01*
X148398582Y-99458846D01*
X148403541Y-99472706D01*
X148407118Y-99486985D01*
X148409278Y-99501546D01*
X148410000Y-99516249D01*
X148410000Y-99516251D01*
X148409278Y-99530954D01*
X148407118Y-99545515D01*
X148403541Y-99559794D01*
X148398582Y-99573654D01*
X148392288Y-99586961D01*
X148384720Y-99599587D01*
X148375952Y-99611410D01*
X148366066Y-99622317D01*
X148355159Y-99632203D01*
X148343336Y-99640971D01*
X148330710Y-99648539D01*
X148317403Y-99654833D01*
X148303543Y-99659792D01*
X148289264Y-99663369D01*
X148274703Y-99665529D01*
X148260000Y-99666251D01*
X147085000Y-99666251D01*
X147070297Y-99665529D01*
X147055736Y-99663369D01*
X147041457Y-99659792D01*
X147027597Y-99654833D01*
X147014290Y-99648539D01*
X147001664Y-99640971D01*
X146989841Y-99632203D01*
X146978934Y-99622317D01*
X146969048Y-99611410D01*
X146960280Y-99599587D01*
X146952712Y-99586961D01*
X146946418Y-99573654D01*
X146941459Y-99559794D01*
X146937882Y-99545515D01*
X146935722Y-99530954D01*
X146935000Y-99516251D01*
X146935000Y-99516249D01*
X146935722Y-99501546D01*
X146937882Y-99486985D01*
X146941459Y-99472706D01*
X146946418Y-99458846D01*
X146952712Y-99445539D01*
X146960280Y-99432913D01*
X146969048Y-99421090D01*
X146978934Y-99410183D01*
X146989841Y-99400297D01*
X147001664Y-99391529D01*
X147014290Y-99383961D01*
X147027597Y-99377667D01*
X147041457Y-99372708D01*
X147055736Y-99369131D01*
X147070297Y-99366971D01*
X147085000Y-99366249D01*
X148260000Y-99366249D01*
X148274703Y-99366971D01*
X148274703Y-99366971D01*
G37*
D11*
X147672500Y-99516250D03*
D10*
G36*
X148274703Y-98866971D02*
G01*
X148289264Y-98869131D01*
X148303543Y-98872708D01*
X148317403Y-98877667D01*
X148330710Y-98883961D01*
X148343336Y-98891529D01*
X148355159Y-98900297D01*
X148366066Y-98910183D01*
X148375952Y-98921090D01*
X148384720Y-98932913D01*
X148392288Y-98945539D01*
X148398582Y-98958846D01*
X148403541Y-98972706D01*
X148407118Y-98986985D01*
X148409278Y-99001546D01*
X148410000Y-99016249D01*
X148410000Y-99016251D01*
X148409278Y-99030954D01*
X148407118Y-99045515D01*
X148403541Y-99059794D01*
X148398582Y-99073654D01*
X148392288Y-99086961D01*
X148384720Y-99099587D01*
X148375952Y-99111410D01*
X148366066Y-99122317D01*
X148355159Y-99132203D01*
X148343336Y-99140971D01*
X148330710Y-99148539D01*
X148317403Y-99154833D01*
X148303543Y-99159792D01*
X148289264Y-99163369D01*
X148274703Y-99165529D01*
X148260000Y-99166251D01*
X147085000Y-99166251D01*
X147070297Y-99165529D01*
X147055736Y-99163369D01*
X147041457Y-99159792D01*
X147027597Y-99154833D01*
X147014290Y-99148539D01*
X147001664Y-99140971D01*
X146989841Y-99132203D01*
X146978934Y-99122317D01*
X146969048Y-99111410D01*
X146960280Y-99099587D01*
X146952712Y-99086961D01*
X146946418Y-99073654D01*
X146941459Y-99059794D01*
X146937882Y-99045515D01*
X146935722Y-99030954D01*
X146935000Y-99016251D01*
X146935000Y-99016249D01*
X146935722Y-99001546D01*
X146937882Y-98986985D01*
X146941459Y-98972706D01*
X146946418Y-98958846D01*
X146952712Y-98945539D01*
X146960280Y-98932913D01*
X146969048Y-98921090D01*
X146978934Y-98910183D01*
X146989841Y-98900297D01*
X147001664Y-98891529D01*
X147014290Y-98883961D01*
X147027597Y-98877667D01*
X147041457Y-98872708D01*
X147055736Y-98869131D01*
X147070297Y-98866971D01*
X147085000Y-98866249D01*
X148260000Y-98866249D01*
X148274703Y-98866971D01*
X148274703Y-98866971D01*
G37*
D11*
X147672500Y-99016250D03*
D10*
G36*
X148274703Y-98366971D02*
G01*
X148289264Y-98369131D01*
X148303543Y-98372708D01*
X148317403Y-98377667D01*
X148330710Y-98383961D01*
X148343336Y-98391529D01*
X148355159Y-98400297D01*
X148366066Y-98410183D01*
X148375952Y-98421090D01*
X148384720Y-98432913D01*
X148392288Y-98445539D01*
X148398582Y-98458846D01*
X148403541Y-98472706D01*
X148407118Y-98486985D01*
X148409278Y-98501546D01*
X148410000Y-98516249D01*
X148410000Y-98516251D01*
X148409278Y-98530954D01*
X148407118Y-98545515D01*
X148403541Y-98559794D01*
X148398582Y-98573654D01*
X148392288Y-98586961D01*
X148384720Y-98599587D01*
X148375952Y-98611410D01*
X148366066Y-98622317D01*
X148355159Y-98632203D01*
X148343336Y-98640971D01*
X148330710Y-98648539D01*
X148317403Y-98654833D01*
X148303543Y-98659792D01*
X148289264Y-98663369D01*
X148274703Y-98665529D01*
X148260000Y-98666251D01*
X147085000Y-98666251D01*
X147070297Y-98665529D01*
X147055736Y-98663369D01*
X147041457Y-98659792D01*
X147027597Y-98654833D01*
X147014290Y-98648539D01*
X147001664Y-98640971D01*
X146989841Y-98632203D01*
X146978934Y-98622317D01*
X146969048Y-98611410D01*
X146960280Y-98599587D01*
X146952712Y-98586961D01*
X146946418Y-98573654D01*
X146941459Y-98559794D01*
X146937882Y-98545515D01*
X146935722Y-98530954D01*
X146935000Y-98516251D01*
X146935000Y-98516249D01*
X146935722Y-98501546D01*
X146937882Y-98486985D01*
X146941459Y-98472706D01*
X146946418Y-98458846D01*
X146952712Y-98445539D01*
X146960280Y-98432913D01*
X146969048Y-98421090D01*
X146978934Y-98410183D01*
X146989841Y-98400297D01*
X147001664Y-98391529D01*
X147014290Y-98383961D01*
X147027597Y-98377667D01*
X147041457Y-98372708D01*
X147055736Y-98369131D01*
X147070297Y-98366971D01*
X147085000Y-98366249D01*
X148260000Y-98366249D01*
X148274703Y-98366971D01*
X148274703Y-98366971D01*
G37*
D11*
X147672500Y-98516250D03*
D10*
G36*
X148274703Y-97866971D02*
G01*
X148289264Y-97869131D01*
X148303543Y-97872708D01*
X148317403Y-97877667D01*
X148330710Y-97883961D01*
X148343336Y-97891529D01*
X148355159Y-97900297D01*
X148366066Y-97910183D01*
X148375952Y-97921090D01*
X148384720Y-97932913D01*
X148392288Y-97945539D01*
X148398582Y-97958846D01*
X148403541Y-97972706D01*
X148407118Y-97986985D01*
X148409278Y-98001546D01*
X148410000Y-98016249D01*
X148410000Y-98016251D01*
X148409278Y-98030954D01*
X148407118Y-98045515D01*
X148403541Y-98059794D01*
X148398582Y-98073654D01*
X148392288Y-98086961D01*
X148384720Y-98099587D01*
X148375952Y-98111410D01*
X148366066Y-98122317D01*
X148355159Y-98132203D01*
X148343336Y-98140971D01*
X148330710Y-98148539D01*
X148317403Y-98154833D01*
X148303543Y-98159792D01*
X148289264Y-98163369D01*
X148274703Y-98165529D01*
X148260000Y-98166251D01*
X147085000Y-98166251D01*
X147070297Y-98165529D01*
X147055736Y-98163369D01*
X147041457Y-98159792D01*
X147027597Y-98154833D01*
X147014290Y-98148539D01*
X147001664Y-98140971D01*
X146989841Y-98132203D01*
X146978934Y-98122317D01*
X146969048Y-98111410D01*
X146960280Y-98099587D01*
X146952712Y-98086961D01*
X146946418Y-98073654D01*
X146941459Y-98059794D01*
X146937882Y-98045515D01*
X146935722Y-98030954D01*
X146935000Y-98016251D01*
X146935000Y-98016249D01*
X146935722Y-98001546D01*
X146937882Y-97986985D01*
X146941459Y-97972706D01*
X146946418Y-97958846D01*
X146952712Y-97945539D01*
X146960280Y-97932913D01*
X146969048Y-97921090D01*
X146978934Y-97910183D01*
X146989841Y-97900297D01*
X147001664Y-97891529D01*
X147014290Y-97883961D01*
X147027597Y-97877667D01*
X147041457Y-97872708D01*
X147055736Y-97869131D01*
X147070297Y-97866971D01*
X147085000Y-97866249D01*
X148260000Y-97866249D01*
X148274703Y-97866971D01*
X148274703Y-97866971D01*
G37*
D11*
X147672500Y-98016250D03*
D10*
G36*
X148274703Y-97366971D02*
G01*
X148289264Y-97369131D01*
X148303543Y-97372708D01*
X148317403Y-97377667D01*
X148330710Y-97383961D01*
X148343336Y-97391529D01*
X148355159Y-97400297D01*
X148366066Y-97410183D01*
X148375952Y-97421090D01*
X148384720Y-97432913D01*
X148392288Y-97445539D01*
X148398582Y-97458846D01*
X148403541Y-97472706D01*
X148407118Y-97486985D01*
X148409278Y-97501546D01*
X148410000Y-97516249D01*
X148410000Y-97516251D01*
X148409278Y-97530954D01*
X148407118Y-97545515D01*
X148403541Y-97559794D01*
X148398582Y-97573654D01*
X148392288Y-97586961D01*
X148384720Y-97599587D01*
X148375952Y-97611410D01*
X148366066Y-97622317D01*
X148355159Y-97632203D01*
X148343336Y-97640971D01*
X148330710Y-97648539D01*
X148317403Y-97654833D01*
X148303543Y-97659792D01*
X148289264Y-97663369D01*
X148274703Y-97665529D01*
X148260000Y-97666251D01*
X147085000Y-97666251D01*
X147070297Y-97665529D01*
X147055736Y-97663369D01*
X147041457Y-97659792D01*
X147027597Y-97654833D01*
X147014290Y-97648539D01*
X147001664Y-97640971D01*
X146989841Y-97632203D01*
X146978934Y-97622317D01*
X146969048Y-97611410D01*
X146960280Y-97599587D01*
X146952712Y-97586961D01*
X146946418Y-97573654D01*
X146941459Y-97559794D01*
X146937882Y-97545515D01*
X146935722Y-97530954D01*
X146935000Y-97516251D01*
X146935000Y-97516249D01*
X146935722Y-97501546D01*
X146937882Y-97486985D01*
X146941459Y-97472706D01*
X146946418Y-97458846D01*
X146952712Y-97445539D01*
X146960280Y-97432913D01*
X146969048Y-97421090D01*
X146978934Y-97410183D01*
X146989841Y-97400297D01*
X147001664Y-97391529D01*
X147014290Y-97383961D01*
X147027597Y-97377667D01*
X147041457Y-97372708D01*
X147055736Y-97369131D01*
X147070297Y-97366971D01*
X147085000Y-97366249D01*
X148260000Y-97366249D01*
X148274703Y-97366971D01*
X148274703Y-97366971D01*
G37*
D11*
X147672500Y-97516250D03*
D10*
G36*
X148274703Y-96866971D02*
G01*
X148289264Y-96869131D01*
X148303543Y-96872708D01*
X148317403Y-96877667D01*
X148330710Y-96883961D01*
X148343336Y-96891529D01*
X148355159Y-96900297D01*
X148366066Y-96910183D01*
X148375952Y-96921090D01*
X148384720Y-96932913D01*
X148392288Y-96945539D01*
X148398582Y-96958846D01*
X148403541Y-96972706D01*
X148407118Y-96986985D01*
X148409278Y-97001546D01*
X148410000Y-97016249D01*
X148410000Y-97016251D01*
X148409278Y-97030954D01*
X148407118Y-97045515D01*
X148403541Y-97059794D01*
X148398582Y-97073654D01*
X148392288Y-97086961D01*
X148384720Y-97099587D01*
X148375952Y-97111410D01*
X148366066Y-97122317D01*
X148355159Y-97132203D01*
X148343336Y-97140971D01*
X148330710Y-97148539D01*
X148317403Y-97154833D01*
X148303543Y-97159792D01*
X148289264Y-97163369D01*
X148274703Y-97165529D01*
X148260000Y-97166251D01*
X147085000Y-97166251D01*
X147070297Y-97165529D01*
X147055736Y-97163369D01*
X147041457Y-97159792D01*
X147027597Y-97154833D01*
X147014290Y-97148539D01*
X147001664Y-97140971D01*
X146989841Y-97132203D01*
X146978934Y-97122317D01*
X146969048Y-97111410D01*
X146960280Y-97099587D01*
X146952712Y-97086961D01*
X146946418Y-97073654D01*
X146941459Y-97059794D01*
X146937882Y-97045515D01*
X146935722Y-97030954D01*
X146935000Y-97016251D01*
X146935000Y-97016249D01*
X146935722Y-97001546D01*
X146937882Y-96986985D01*
X146941459Y-96972706D01*
X146946418Y-96958846D01*
X146952712Y-96945539D01*
X146960280Y-96932913D01*
X146969048Y-96921090D01*
X146978934Y-96910183D01*
X146989841Y-96900297D01*
X147001664Y-96891529D01*
X147014290Y-96883961D01*
X147027597Y-96877667D01*
X147041457Y-96872708D01*
X147055736Y-96869131D01*
X147070297Y-96866971D01*
X147085000Y-96866249D01*
X148260000Y-96866249D01*
X148274703Y-96866971D01*
X148274703Y-96866971D01*
G37*
D11*
X147672500Y-97016250D03*
D10*
G36*
X148274703Y-96366971D02*
G01*
X148289264Y-96369131D01*
X148303543Y-96372708D01*
X148317403Y-96377667D01*
X148330710Y-96383961D01*
X148343336Y-96391529D01*
X148355159Y-96400297D01*
X148366066Y-96410183D01*
X148375952Y-96421090D01*
X148384720Y-96432913D01*
X148392288Y-96445539D01*
X148398582Y-96458846D01*
X148403541Y-96472706D01*
X148407118Y-96486985D01*
X148409278Y-96501546D01*
X148410000Y-96516249D01*
X148410000Y-96516251D01*
X148409278Y-96530954D01*
X148407118Y-96545515D01*
X148403541Y-96559794D01*
X148398582Y-96573654D01*
X148392288Y-96586961D01*
X148384720Y-96599587D01*
X148375952Y-96611410D01*
X148366066Y-96622317D01*
X148355159Y-96632203D01*
X148343336Y-96640971D01*
X148330710Y-96648539D01*
X148317403Y-96654833D01*
X148303543Y-96659792D01*
X148289264Y-96663369D01*
X148274703Y-96665529D01*
X148260000Y-96666251D01*
X147085000Y-96666251D01*
X147070297Y-96665529D01*
X147055736Y-96663369D01*
X147041457Y-96659792D01*
X147027597Y-96654833D01*
X147014290Y-96648539D01*
X147001664Y-96640971D01*
X146989841Y-96632203D01*
X146978934Y-96622317D01*
X146969048Y-96611410D01*
X146960280Y-96599587D01*
X146952712Y-96586961D01*
X146946418Y-96573654D01*
X146941459Y-96559794D01*
X146937882Y-96545515D01*
X146935722Y-96530954D01*
X146935000Y-96516251D01*
X146935000Y-96516249D01*
X146935722Y-96501546D01*
X146937882Y-96486985D01*
X146941459Y-96472706D01*
X146946418Y-96458846D01*
X146952712Y-96445539D01*
X146960280Y-96432913D01*
X146969048Y-96421090D01*
X146978934Y-96410183D01*
X146989841Y-96400297D01*
X147001664Y-96391529D01*
X147014290Y-96383961D01*
X147027597Y-96377667D01*
X147041457Y-96372708D01*
X147055736Y-96369131D01*
X147070297Y-96366971D01*
X147085000Y-96366249D01*
X148260000Y-96366249D01*
X148274703Y-96366971D01*
X148274703Y-96366971D01*
G37*
D11*
X147672500Y-96516250D03*
D10*
G36*
X148274703Y-95866971D02*
G01*
X148289264Y-95869131D01*
X148303543Y-95872708D01*
X148317403Y-95877667D01*
X148330710Y-95883961D01*
X148343336Y-95891529D01*
X148355159Y-95900297D01*
X148366066Y-95910183D01*
X148375952Y-95921090D01*
X148384720Y-95932913D01*
X148392288Y-95945539D01*
X148398582Y-95958846D01*
X148403541Y-95972706D01*
X148407118Y-95986985D01*
X148409278Y-96001546D01*
X148410000Y-96016249D01*
X148410000Y-96016251D01*
X148409278Y-96030954D01*
X148407118Y-96045515D01*
X148403541Y-96059794D01*
X148398582Y-96073654D01*
X148392288Y-96086961D01*
X148384720Y-96099587D01*
X148375952Y-96111410D01*
X148366066Y-96122317D01*
X148355159Y-96132203D01*
X148343336Y-96140971D01*
X148330710Y-96148539D01*
X148317403Y-96154833D01*
X148303543Y-96159792D01*
X148289264Y-96163369D01*
X148274703Y-96165529D01*
X148260000Y-96166251D01*
X147085000Y-96166251D01*
X147070297Y-96165529D01*
X147055736Y-96163369D01*
X147041457Y-96159792D01*
X147027597Y-96154833D01*
X147014290Y-96148539D01*
X147001664Y-96140971D01*
X146989841Y-96132203D01*
X146978934Y-96122317D01*
X146969048Y-96111410D01*
X146960280Y-96099587D01*
X146952712Y-96086961D01*
X146946418Y-96073654D01*
X146941459Y-96059794D01*
X146937882Y-96045515D01*
X146935722Y-96030954D01*
X146935000Y-96016251D01*
X146935000Y-96016249D01*
X146935722Y-96001546D01*
X146937882Y-95986985D01*
X146941459Y-95972706D01*
X146946418Y-95958846D01*
X146952712Y-95945539D01*
X146960280Y-95932913D01*
X146969048Y-95921090D01*
X146978934Y-95910183D01*
X146989841Y-95900297D01*
X147001664Y-95891529D01*
X147014290Y-95883961D01*
X147027597Y-95877667D01*
X147041457Y-95872708D01*
X147055736Y-95869131D01*
X147070297Y-95866971D01*
X147085000Y-95866249D01*
X148260000Y-95866249D01*
X148274703Y-95866971D01*
X148274703Y-95866971D01*
G37*
D11*
X147672500Y-96016250D03*
D12*
X147672500Y-95516250D03*
D10*
G36*
X223768453Y-62288847D02*
G01*
X223783014Y-62291007D01*
X223797293Y-62294584D01*
X223811153Y-62299543D01*
X223824460Y-62305837D01*
X223837086Y-62313405D01*
X223848909Y-62322173D01*
X223859816Y-62332059D01*
X223869702Y-62342966D01*
X223878470Y-62354789D01*
X223886038Y-62367415D01*
X223892332Y-62380722D01*
X223897291Y-62394582D01*
X223900868Y-62408861D01*
X223903028Y-62423422D01*
X223903750Y-62438125D01*
X223903750Y-63588125D01*
X223903028Y-63602828D01*
X223900868Y-63617389D01*
X223897291Y-63631668D01*
X223892332Y-63645528D01*
X223886038Y-63658835D01*
X223878470Y-63671461D01*
X223869702Y-63683284D01*
X223859816Y-63694191D01*
X223848909Y-63704077D01*
X223837086Y-63712845D01*
X223824460Y-63720413D01*
X223811153Y-63726707D01*
X223797293Y-63731666D01*
X223783014Y-63735243D01*
X223768453Y-63737403D01*
X223753750Y-63738125D01*
X223453750Y-63738125D01*
X223439047Y-63737403D01*
X223424486Y-63735243D01*
X223410207Y-63731666D01*
X223396347Y-63726707D01*
X223383040Y-63720413D01*
X223370414Y-63712845D01*
X223358591Y-63704077D01*
X223347684Y-63694191D01*
X223337798Y-63683284D01*
X223329030Y-63671461D01*
X223321462Y-63658835D01*
X223315168Y-63645528D01*
X223310209Y-63631668D01*
X223306632Y-63617389D01*
X223304472Y-63602828D01*
X223303750Y-63588125D01*
X223303750Y-62438125D01*
X223304472Y-62423422D01*
X223306632Y-62408861D01*
X223310209Y-62394582D01*
X223315168Y-62380722D01*
X223321462Y-62367415D01*
X223329030Y-62354789D01*
X223337798Y-62342966D01*
X223347684Y-62332059D01*
X223358591Y-62322173D01*
X223370414Y-62313405D01*
X223383040Y-62305837D01*
X223396347Y-62299543D01*
X223410207Y-62294584D01*
X223424486Y-62291007D01*
X223439047Y-62288847D01*
X223453750Y-62288125D01*
X223753750Y-62288125D01*
X223768453Y-62288847D01*
X223768453Y-62288847D01*
G37*
D13*
X223603750Y-63013125D03*
D10*
G36*
X225186101Y-62288486D02*
G01*
X225193382Y-62289566D01*
X225200521Y-62291354D01*
X225207451Y-62293834D01*
X225214105Y-62296981D01*
X225220418Y-62300765D01*
X225226329Y-62305149D01*
X225231783Y-62310092D01*
X225236726Y-62315546D01*
X225241110Y-62321457D01*
X225244894Y-62327770D01*
X225248041Y-62334424D01*
X225250521Y-62341354D01*
X225252309Y-62348493D01*
X225253389Y-62355774D01*
X225253750Y-62363125D01*
X225253750Y-63663125D01*
X225253389Y-63670476D01*
X225252309Y-63677757D01*
X225250521Y-63684896D01*
X225248041Y-63691826D01*
X225244894Y-63698480D01*
X225241110Y-63704793D01*
X225236726Y-63710704D01*
X225231783Y-63716158D01*
X225226329Y-63721101D01*
X225220418Y-63725485D01*
X225214105Y-63729269D01*
X225207451Y-63732416D01*
X225200521Y-63734896D01*
X225193382Y-63736684D01*
X225186101Y-63737764D01*
X225178750Y-63738125D01*
X225028750Y-63738125D01*
X225021399Y-63737764D01*
X225014118Y-63736684D01*
X225006979Y-63734896D01*
X225000049Y-63732416D01*
X224993395Y-63729269D01*
X224987082Y-63725485D01*
X224981171Y-63721101D01*
X224975717Y-63716158D01*
X224970774Y-63710704D01*
X224966390Y-63704793D01*
X224962606Y-63698480D01*
X224959459Y-63691826D01*
X224956979Y-63684896D01*
X224955191Y-63677757D01*
X224954111Y-63670476D01*
X224953750Y-63663125D01*
X224953750Y-62363125D01*
X224954111Y-62355774D01*
X224955191Y-62348493D01*
X224956979Y-62341354D01*
X224959459Y-62334424D01*
X224962606Y-62327770D01*
X224966390Y-62321457D01*
X224970774Y-62315546D01*
X224975717Y-62310092D01*
X224981171Y-62305149D01*
X224987082Y-62300765D01*
X224993395Y-62296981D01*
X225000049Y-62293834D01*
X225006979Y-62291354D01*
X225014118Y-62289566D01*
X225021399Y-62288486D01*
X225028750Y-62288125D01*
X225178750Y-62288125D01*
X225186101Y-62288486D01*
X225186101Y-62288486D01*
G37*
D11*
X225103750Y-63013125D03*
D10*
G36*
X225686101Y-62288486D02*
G01*
X225693382Y-62289566D01*
X225700521Y-62291354D01*
X225707451Y-62293834D01*
X225714105Y-62296981D01*
X225720418Y-62300765D01*
X225726329Y-62305149D01*
X225731783Y-62310092D01*
X225736726Y-62315546D01*
X225741110Y-62321457D01*
X225744894Y-62327770D01*
X225748041Y-62334424D01*
X225750521Y-62341354D01*
X225752309Y-62348493D01*
X225753389Y-62355774D01*
X225753750Y-62363125D01*
X225753750Y-63663125D01*
X225753389Y-63670476D01*
X225752309Y-63677757D01*
X225750521Y-63684896D01*
X225748041Y-63691826D01*
X225744894Y-63698480D01*
X225741110Y-63704793D01*
X225736726Y-63710704D01*
X225731783Y-63716158D01*
X225726329Y-63721101D01*
X225720418Y-63725485D01*
X225714105Y-63729269D01*
X225707451Y-63732416D01*
X225700521Y-63734896D01*
X225693382Y-63736684D01*
X225686101Y-63737764D01*
X225678750Y-63738125D01*
X225528750Y-63738125D01*
X225521399Y-63737764D01*
X225514118Y-63736684D01*
X225506979Y-63734896D01*
X225500049Y-63732416D01*
X225493395Y-63729269D01*
X225487082Y-63725485D01*
X225481171Y-63721101D01*
X225475717Y-63716158D01*
X225470774Y-63710704D01*
X225466390Y-63704793D01*
X225462606Y-63698480D01*
X225459459Y-63691826D01*
X225456979Y-63684896D01*
X225455191Y-63677757D01*
X225454111Y-63670476D01*
X225453750Y-63663125D01*
X225453750Y-62363125D01*
X225454111Y-62355774D01*
X225455191Y-62348493D01*
X225456979Y-62341354D01*
X225459459Y-62334424D01*
X225462606Y-62327770D01*
X225466390Y-62321457D01*
X225470774Y-62315546D01*
X225475717Y-62310092D01*
X225481171Y-62305149D01*
X225487082Y-62300765D01*
X225493395Y-62296981D01*
X225500049Y-62293834D01*
X225506979Y-62291354D01*
X225514118Y-62289566D01*
X225521399Y-62288486D01*
X225528750Y-62288125D01*
X225678750Y-62288125D01*
X225686101Y-62288486D01*
X225686101Y-62288486D01*
G37*
D11*
X225603750Y-63013125D03*
D10*
G36*
X226186101Y-62288486D02*
G01*
X226193382Y-62289566D01*
X226200521Y-62291354D01*
X226207451Y-62293834D01*
X226214105Y-62296981D01*
X226220418Y-62300765D01*
X226226329Y-62305149D01*
X226231783Y-62310092D01*
X226236726Y-62315546D01*
X226241110Y-62321457D01*
X226244894Y-62327770D01*
X226248041Y-62334424D01*
X226250521Y-62341354D01*
X226252309Y-62348493D01*
X226253389Y-62355774D01*
X226253750Y-62363125D01*
X226253750Y-63663125D01*
X226253389Y-63670476D01*
X226252309Y-63677757D01*
X226250521Y-63684896D01*
X226248041Y-63691826D01*
X226244894Y-63698480D01*
X226241110Y-63704793D01*
X226236726Y-63710704D01*
X226231783Y-63716158D01*
X226226329Y-63721101D01*
X226220418Y-63725485D01*
X226214105Y-63729269D01*
X226207451Y-63732416D01*
X226200521Y-63734896D01*
X226193382Y-63736684D01*
X226186101Y-63737764D01*
X226178750Y-63738125D01*
X226028750Y-63738125D01*
X226021399Y-63737764D01*
X226014118Y-63736684D01*
X226006979Y-63734896D01*
X226000049Y-63732416D01*
X225993395Y-63729269D01*
X225987082Y-63725485D01*
X225981171Y-63721101D01*
X225975717Y-63716158D01*
X225970774Y-63710704D01*
X225966390Y-63704793D01*
X225962606Y-63698480D01*
X225959459Y-63691826D01*
X225956979Y-63684896D01*
X225955191Y-63677757D01*
X225954111Y-63670476D01*
X225953750Y-63663125D01*
X225953750Y-62363125D01*
X225954111Y-62355774D01*
X225955191Y-62348493D01*
X225956979Y-62341354D01*
X225959459Y-62334424D01*
X225962606Y-62327770D01*
X225966390Y-62321457D01*
X225970774Y-62315546D01*
X225975717Y-62310092D01*
X225981171Y-62305149D01*
X225987082Y-62300765D01*
X225993395Y-62296981D01*
X226000049Y-62293834D01*
X226006979Y-62291354D01*
X226014118Y-62289566D01*
X226021399Y-62288486D01*
X226028750Y-62288125D01*
X226178750Y-62288125D01*
X226186101Y-62288486D01*
X226186101Y-62288486D01*
G37*
D11*
X226103750Y-63013125D03*
D10*
G36*
X226682101Y-62288486D02*
G01*
X226689382Y-62289566D01*
X226696521Y-62291354D01*
X226703451Y-62293834D01*
X226710105Y-62296981D01*
X226716418Y-62300765D01*
X226722329Y-62305149D01*
X226727783Y-62310092D01*
X226732726Y-62315546D01*
X226737110Y-62321457D01*
X226740894Y-62327770D01*
X226744041Y-62334424D01*
X226746521Y-62341354D01*
X226748309Y-62348493D01*
X226749389Y-62355774D01*
X226749750Y-62363125D01*
X226749750Y-63663125D01*
X226749389Y-63670476D01*
X226748309Y-63677757D01*
X226746521Y-63684896D01*
X226744041Y-63691826D01*
X226740894Y-63698480D01*
X226737110Y-63704793D01*
X226732726Y-63710704D01*
X226727783Y-63716158D01*
X226722329Y-63721101D01*
X226716418Y-63725485D01*
X226710105Y-63729269D01*
X226703451Y-63732416D01*
X226696521Y-63734896D01*
X226689382Y-63736684D01*
X226682101Y-63737764D01*
X226674750Y-63738125D01*
X226524750Y-63738125D01*
X226517399Y-63737764D01*
X226510118Y-63736684D01*
X226502979Y-63734896D01*
X226496049Y-63732416D01*
X226489395Y-63729269D01*
X226483082Y-63725485D01*
X226477171Y-63721101D01*
X226471717Y-63716158D01*
X226466774Y-63710704D01*
X226462390Y-63704793D01*
X226458606Y-63698480D01*
X226455459Y-63691826D01*
X226452979Y-63684896D01*
X226451191Y-63677757D01*
X226450111Y-63670476D01*
X226449750Y-63663125D01*
X226449750Y-62363125D01*
X226450111Y-62355774D01*
X226451191Y-62348493D01*
X226452979Y-62341354D01*
X226455459Y-62334424D01*
X226458606Y-62327770D01*
X226462390Y-62321457D01*
X226466774Y-62315546D01*
X226471717Y-62310092D01*
X226477171Y-62305149D01*
X226483082Y-62300765D01*
X226489395Y-62296981D01*
X226496049Y-62293834D01*
X226502979Y-62291354D01*
X226510118Y-62289566D01*
X226517399Y-62288486D01*
X226524750Y-62288125D01*
X226674750Y-62288125D01*
X226682101Y-62288486D01*
X226682101Y-62288486D01*
G37*
D11*
X226599750Y-63013125D03*
D10*
G36*
X228686101Y-62288486D02*
G01*
X228693382Y-62289566D01*
X228700521Y-62291354D01*
X228707451Y-62293834D01*
X228714105Y-62296981D01*
X228720418Y-62300765D01*
X228726329Y-62305149D01*
X228731783Y-62310092D01*
X228736726Y-62315546D01*
X228741110Y-62321457D01*
X228744894Y-62327770D01*
X228748041Y-62334424D01*
X228750521Y-62341354D01*
X228752309Y-62348493D01*
X228753389Y-62355774D01*
X228753750Y-62363125D01*
X228753750Y-63663125D01*
X228753389Y-63670476D01*
X228752309Y-63677757D01*
X228750521Y-63684896D01*
X228748041Y-63691826D01*
X228744894Y-63698480D01*
X228741110Y-63704793D01*
X228736726Y-63710704D01*
X228731783Y-63716158D01*
X228726329Y-63721101D01*
X228720418Y-63725485D01*
X228714105Y-63729269D01*
X228707451Y-63732416D01*
X228700521Y-63734896D01*
X228693382Y-63736684D01*
X228686101Y-63737764D01*
X228678750Y-63738125D01*
X228528750Y-63738125D01*
X228521399Y-63737764D01*
X228514118Y-63736684D01*
X228506979Y-63734896D01*
X228500049Y-63732416D01*
X228493395Y-63729269D01*
X228487082Y-63725485D01*
X228481171Y-63721101D01*
X228475717Y-63716158D01*
X228470774Y-63710704D01*
X228466390Y-63704793D01*
X228462606Y-63698480D01*
X228459459Y-63691826D01*
X228456979Y-63684896D01*
X228455191Y-63677757D01*
X228454111Y-63670476D01*
X228453750Y-63663125D01*
X228453750Y-62363125D01*
X228454111Y-62355774D01*
X228455191Y-62348493D01*
X228456979Y-62341354D01*
X228459459Y-62334424D01*
X228462606Y-62327770D01*
X228466390Y-62321457D01*
X228470774Y-62315546D01*
X228475717Y-62310092D01*
X228481171Y-62305149D01*
X228487082Y-62300765D01*
X228493395Y-62296981D01*
X228500049Y-62293834D01*
X228506979Y-62291354D01*
X228514118Y-62289566D01*
X228521399Y-62288486D01*
X228528750Y-62288125D01*
X228678750Y-62288125D01*
X228686101Y-62288486D01*
X228686101Y-62288486D01*
G37*
D11*
X228603750Y-63013125D03*
D10*
G36*
X228186101Y-62288486D02*
G01*
X228193382Y-62289566D01*
X228200521Y-62291354D01*
X228207451Y-62293834D01*
X228214105Y-62296981D01*
X228220418Y-62300765D01*
X228226329Y-62305149D01*
X228231783Y-62310092D01*
X228236726Y-62315546D01*
X228241110Y-62321457D01*
X228244894Y-62327770D01*
X228248041Y-62334424D01*
X228250521Y-62341354D01*
X228252309Y-62348493D01*
X228253389Y-62355774D01*
X228253750Y-62363125D01*
X228253750Y-63663125D01*
X228253389Y-63670476D01*
X228252309Y-63677757D01*
X228250521Y-63684896D01*
X228248041Y-63691826D01*
X228244894Y-63698480D01*
X228241110Y-63704793D01*
X228236726Y-63710704D01*
X228231783Y-63716158D01*
X228226329Y-63721101D01*
X228220418Y-63725485D01*
X228214105Y-63729269D01*
X228207451Y-63732416D01*
X228200521Y-63734896D01*
X228193382Y-63736684D01*
X228186101Y-63737764D01*
X228178750Y-63738125D01*
X228028750Y-63738125D01*
X228021399Y-63737764D01*
X228014118Y-63736684D01*
X228006979Y-63734896D01*
X228000049Y-63732416D01*
X227993395Y-63729269D01*
X227987082Y-63725485D01*
X227981171Y-63721101D01*
X227975717Y-63716158D01*
X227970774Y-63710704D01*
X227966390Y-63704793D01*
X227962606Y-63698480D01*
X227959459Y-63691826D01*
X227956979Y-63684896D01*
X227955191Y-63677757D01*
X227954111Y-63670476D01*
X227953750Y-63663125D01*
X227953750Y-62363125D01*
X227954111Y-62355774D01*
X227955191Y-62348493D01*
X227956979Y-62341354D01*
X227959459Y-62334424D01*
X227962606Y-62327770D01*
X227966390Y-62321457D01*
X227970774Y-62315546D01*
X227975717Y-62310092D01*
X227981171Y-62305149D01*
X227987082Y-62300765D01*
X227993395Y-62296981D01*
X228000049Y-62293834D01*
X228006979Y-62291354D01*
X228014118Y-62289566D01*
X228021399Y-62288486D01*
X228028750Y-62288125D01*
X228178750Y-62288125D01*
X228186101Y-62288486D01*
X228186101Y-62288486D01*
G37*
D11*
X228103750Y-63013125D03*
D10*
G36*
X227686101Y-62288486D02*
G01*
X227693382Y-62289566D01*
X227700521Y-62291354D01*
X227707451Y-62293834D01*
X227714105Y-62296981D01*
X227720418Y-62300765D01*
X227726329Y-62305149D01*
X227731783Y-62310092D01*
X227736726Y-62315546D01*
X227741110Y-62321457D01*
X227744894Y-62327770D01*
X227748041Y-62334424D01*
X227750521Y-62341354D01*
X227752309Y-62348493D01*
X227753389Y-62355774D01*
X227753750Y-62363125D01*
X227753750Y-63663125D01*
X227753389Y-63670476D01*
X227752309Y-63677757D01*
X227750521Y-63684896D01*
X227748041Y-63691826D01*
X227744894Y-63698480D01*
X227741110Y-63704793D01*
X227736726Y-63710704D01*
X227731783Y-63716158D01*
X227726329Y-63721101D01*
X227720418Y-63725485D01*
X227714105Y-63729269D01*
X227707451Y-63732416D01*
X227700521Y-63734896D01*
X227693382Y-63736684D01*
X227686101Y-63737764D01*
X227678750Y-63738125D01*
X227528750Y-63738125D01*
X227521399Y-63737764D01*
X227514118Y-63736684D01*
X227506979Y-63734896D01*
X227500049Y-63732416D01*
X227493395Y-63729269D01*
X227487082Y-63725485D01*
X227481171Y-63721101D01*
X227475717Y-63716158D01*
X227470774Y-63710704D01*
X227466390Y-63704793D01*
X227462606Y-63698480D01*
X227459459Y-63691826D01*
X227456979Y-63684896D01*
X227455191Y-63677757D01*
X227454111Y-63670476D01*
X227453750Y-63663125D01*
X227453750Y-62363125D01*
X227454111Y-62355774D01*
X227455191Y-62348493D01*
X227456979Y-62341354D01*
X227459459Y-62334424D01*
X227462606Y-62327770D01*
X227466390Y-62321457D01*
X227470774Y-62315546D01*
X227475717Y-62310092D01*
X227481171Y-62305149D01*
X227487082Y-62300765D01*
X227493395Y-62296981D01*
X227500049Y-62293834D01*
X227506979Y-62291354D01*
X227514118Y-62289566D01*
X227521399Y-62288486D01*
X227528750Y-62288125D01*
X227678750Y-62288125D01*
X227686101Y-62288486D01*
X227686101Y-62288486D01*
G37*
D11*
X227603750Y-63013125D03*
D10*
G36*
X227186101Y-62288486D02*
G01*
X227193382Y-62289566D01*
X227200521Y-62291354D01*
X227207451Y-62293834D01*
X227214105Y-62296981D01*
X227220418Y-62300765D01*
X227226329Y-62305149D01*
X227231783Y-62310092D01*
X227236726Y-62315546D01*
X227241110Y-62321457D01*
X227244894Y-62327770D01*
X227248041Y-62334424D01*
X227250521Y-62341354D01*
X227252309Y-62348493D01*
X227253389Y-62355774D01*
X227253750Y-62363125D01*
X227253750Y-63663125D01*
X227253389Y-63670476D01*
X227252309Y-63677757D01*
X227250521Y-63684896D01*
X227248041Y-63691826D01*
X227244894Y-63698480D01*
X227241110Y-63704793D01*
X227236726Y-63710704D01*
X227231783Y-63716158D01*
X227226329Y-63721101D01*
X227220418Y-63725485D01*
X227214105Y-63729269D01*
X227207451Y-63732416D01*
X227200521Y-63734896D01*
X227193382Y-63736684D01*
X227186101Y-63737764D01*
X227178750Y-63738125D01*
X227028750Y-63738125D01*
X227021399Y-63737764D01*
X227014118Y-63736684D01*
X227006979Y-63734896D01*
X227000049Y-63732416D01*
X226993395Y-63729269D01*
X226987082Y-63725485D01*
X226981171Y-63721101D01*
X226975717Y-63716158D01*
X226970774Y-63710704D01*
X226966390Y-63704793D01*
X226962606Y-63698480D01*
X226959459Y-63691826D01*
X226956979Y-63684896D01*
X226955191Y-63677757D01*
X226954111Y-63670476D01*
X226953750Y-63663125D01*
X226953750Y-62363125D01*
X226954111Y-62355774D01*
X226955191Y-62348493D01*
X226956979Y-62341354D01*
X226959459Y-62334424D01*
X226962606Y-62327770D01*
X226966390Y-62321457D01*
X226970774Y-62315546D01*
X226975717Y-62310092D01*
X226981171Y-62305149D01*
X226987082Y-62300765D01*
X226993395Y-62296981D01*
X227000049Y-62293834D01*
X227006979Y-62291354D01*
X227014118Y-62289566D01*
X227021399Y-62288486D01*
X227028750Y-62288125D01*
X227178750Y-62288125D01*
X227186101Y-62288486D01*
X227186101Y-62288486D01*
G37*
D11*
X227103750Y-63013125D03*
D10*
G36*
X224568453Y-62288847D02*
G01*
X224583014Y-62291007D01*
X224597293Y-62294584D01*
X224611153Y-62299543D01*
X224624460Y-62305837D01*
X224637086Y-62313405D01*
X224648909Y-62322173D01*
X224659816Y-62332059D01*
X224669702Y-62342966D01*
X224678470Y-62354789D01*
X224686038Y-62367415D01*
X224692332Y-62380722D01*
X224697291Y-62394582D01*
X224700868Y-62408861D01*
X224703028Y-62423422D01*
X224703750Y-62438125D01*
X224703750Y-63588125D01*
X224703028Y-63602828D01*
X224700868Y-63617389D01*
X224697291Y-63631668D01*
X224692332Y-63645528D01*
X224686038Y-63658835D01*
X224678470Y-63671461D01*
X224669702Y-63683284D01*
X224659816Y-63694191D01*
X224648909Y-63704077D01*
X224637086Y-63712845D01*
X224624460Y-63720413D01*
X224611153Y-63726707D01*
X224597293Y-63731666D01*
X224583014Y-63735243D01*
X224568453Y-63737403D01*
X224553750Y-63738125D01*
X224253750Y-63738125D01*
X224239047Y-63737403D01*
X224224486Y-63735243D01*
X224210207Y-63731666D01*
X224196347Y-63726707D01*
X224183040Y-63720413D01*
X224170414Y-63712845D01*
X224158591Y-63704077D01*
X224147684Y-63694191D01*
X224137798Y-63683284D01*
X224129030Y-63671461D01*
X224121462Y-63658835D01*
X224115168Y-63645528D01*
X224110209Y-63631668D01*
X224106632Y-63617389D01*
X224104472Y-63602828D01*
X224103750Y-63588125D01*
X224103750Y-62438125D01*
X224104472Y-62423422D01*
X224106632Y-62408861D01*
X224110209Y-62394582D01*
X224115168Y-62380722D01*
X224121462Y-62367415D01*
X224129030Y-62354789D01*
X224137798Y-62342966D01*
X224147684Y-62332059D01*
X224158591Y-62322173D01*
X224170414Y-62313405D01*
X224183040Y-62305837D01*
X224196347Y-62299543D01*
X224210207Y-62294584D01*
X224224486Y-62291007D01*
X224239047Y-62288847D01*
X224253750Y-62288125D01*
X224553750Y-62288125D01*
X224568453Y-62288847D01*
X224568453Y-62288847D01*
G37*
D13*
X224403750Y-63013125D03*
D10*
G36*
X230268453Y-62288847D02*
G01*
X230283014Y-62291007D01*
X230297293Y-62294584D01*
X230311153Y-62299543D01*
X230324460Y-62305837D01*
X230337086Y-62313405D01*
X230348909Y-62322173D01*
X230359816Y-62332059D01*
X230369702Y-62342966D01*
X230378470Y-62354789D01*
X230386038Y-62367415D01*
X230392332Y-62380722D01*
X230397291Y-62394582D01*
X230400868Y-62408861D01*
X230403028Y-62423422D01*
X230403750Y-62438125D01*
X230403750Y-63588125D01*
X230403028Y-63602828D01*
X230400868Y-63617389D01*
X230397291Y-63631668D01*
X230392332Y-63645528D01*
X230386038Y-63658835D01*
X230378470Y-63671461D01*
X230369702Y-63683284D01*
X230359816Y-63694191D01*
X230348909Y-63704077D01*
X230337086Y-63712845D01*
X230324460Y-63720413D01*
X230311153Y-63726707D01*
X230297293Y-63731666D01*
X230283014Y-63735243D01*
X230268453Y-63737403D01*
X230253750Y-63738125D01*
X229953750Y-63738125D01*
X229939047Y-63737403D01*
X229924486Y-63735243D01*
X229910207Y-63731666D01*
X229896347Y-63726707D01*
X229883040Y-63720413D01*
X229870414Y-63712845D01*
X229858591Y-63704077D01*
X229847684Y-63694191D01*
X229837798Y-63683284D01*
X229829030Y-63671461D01*
X229821462Y-63658835D01*
X229815168Y-63645528D01*
X229810209Y-63631668D01*
X229806632Y-63617389D01*
X229804472Y-63602828D01*
X229803750Y-63588125D01*
X229803750Y-62438125D01*
X229804472Y-62423422D01*
X229806632Y-62408861D01*
X229810209Y-62394582D01*
X229815168Y-62380722D01*
X229821462Y-62367415D01*
X229829030Y-62354789D01*
X229837798Y-62342966D01*
X229847684Y-62332059D01*
X229858591Y-62322173D01*
X229870414Y-62313405D01*
X229883040Y-62305837D01*
X229896347Y-62299543D01*
X229910207Y-62294584D01*
X229924486Y-62291007D01*
X229939047Y-62288847D01*
X229953750Y-62288125D01*
X230253750Y-62288125D01*
X230268453Y-62288847D01*
X230268453Y-62288847D01*
G37*
D13*
X230103750Y-63013125D03*
D10*
G36*
X229468453Y-62288847D02*
G01*
X229483014Y-62291007D01*
X229497293Y-62294584D01*
X229511153Y-62299543D01*
X229524460Y-62305837D01*
X229537086Y-62313405D01*
X229548909Y-62322173D01*
X229559816Y-62332059D01*
X229569702Y-62342966D01*
X229578470Y-62354789D01*
X229586038Y-62367415D01*
X229592332Y-62380722D01*
X229597291Y-62394582D01*
X229600868Y-62408861D01*
X229603028Y-62423422D01*
X229603750Y-62438125D01*
X229603750Y-63588125D01*
X229603028Y-63602828D01*
X229600868Y-63617389D01*
X229597291Y-63631668D01*
X229592332Y-63645528D01*
X229586038Y-63658835D01*
X229578470Y-63671461D01*
X229569702Y-63683284D01*
X229559816Y-63694191D01*
X229548909Y-63704077D01*
X229537086Y-63712845D01*
X229524460Y-63720413D01*
X229511153Y-63726707D01*
X229497293Y-63731666D01*
X229483014Y-63735243D01*
X229468453Y-63737403D01*
X229453750Y-63738125D01*
X229153750Y-63738125D01*
X229139047Y-63737403D01*
X229124486Y-63735243D01*
X229110207Y-63731666D01*
X229096347Y-63726707D01*
X229083040Y-63720413D01*
X229070414Y-63712845D01*
X229058591Y-63704077D01*
X229047684Y-63694191D01*
X229037798Y-63683284D01*
X229029030Y-63671461D01*
X229021462Y-63658835D01*
X229015168Y-63645528D01*
X229010209Y-63631668D01*
X229006632Y-63617389D01*
X229004472Y-63602828D01*
X229003750Y-63588125D01*
X229003750Y-62438125D01*
X229004472Y-62423422D01*
X229006632Y-62408861D01*
X229010209Y-62394582D01*
X229015168Y-62380722D01*
X229021462Y-62367415D01*
X229029030Y-62354789D01*
X229037798Y-62342966D01*
X229047684Y-62332059D01*
X229058591Y-62322173D01*
X229070414Y-62313405D01*
X229083040Y-62305837D01*
X229096347Y-62299543D01*
X229110207Y-62294584D01*
X229124486Y-62291007D01*
X229139047Y-62288847D01*
X229153750Y-62288125D01*
X229453750Y-62288125D01*
X229468453Y-62288847D01*
X229468453Y-62288847D01*
G37*
D13*
X229303750Y-63013125D03*
M02*
