M48
; DRILL file {KiCad 5.1.4} date Mon 09 Sep 2019 01:33:40 AM -03
; FORMAT={3:3/ absolute / metric / suppress leading zeros}
; #@! TF.CreationDate,2019-09-09T01:33:40-03:00
; #@! TF.GenerationSoftware,Kicad,Pcbnew,5.1.4
FMAT,2
METRIC,TZ
T1C0.400
T2C0.600
T3C0.762
T4C1.524
T5C2.500
T6C0.650
T7C1.702
T8C3.048
T9C3.988
%
G90
G05
T1
X117634Y-59690
T3
X-122453Y52660
X-122453Y50374
X-119913Y52660
X-119913Y50374
X-117373Y52660
X-117373Y50374
T4
X120650Y-121920
X120650Y-121920
X127000Y-119380
X127000Y-119380
X256381Y-83820
X256381Y-83820
X262731Y-81280
X262731Y-81280
X208756Y-102870
X208756Y-102870
X215106Y-100330
X215106Y-100330
X118269Y-64770
X118269Y-64770
X124619Y-62230
X124619Y-62230
X306388Y-102870
X306388Y-102870
X312738Y-100330
X312738Y-100330
X246856Y-102870
X246856Y-102870
X253206Y-100330
X253206Y-100330
X270669Y-64770
X270669Y-64770
X277019Y-62230
X277019Y-62230
X284956Y-102870
X284956Y-102870
X291306Y-100330
X291306Y-100330
X189706Y-102870
X189706Y-102870
X196056Y-100330
X196056Y-100330
X275431Y-83820
X275431Y-83820
X281781Y-81280
X281781Y-81280
X308769Y-64770
X308769Y-64770
X315119Y-62230
X315119Y-62230
X237331Y-83820
X237331Y-83820
X243681Y-81280
X243681Y-81280
X289719Y-64770
X289719Y-64770
X296069Y-62230
X296069Y-62230
X320675Y-83820
X320675Y-83820
X327025Y-81280
X327025Y-81280
X325438Y-121920
X325438Y-121920
X331787Y-119380
X331787Y-119380
X218281Y-83820
X218281Y-83820
X224631Y-81280
X224631Y-81280
X301625Y-121920
X301625Y-121920
X307975Y-119380
X307975Y-119380
X156369Y-64770
X156369Y-64770
X162719Y-62230
X162719Y-62230
X175419Y-64770
X175419Y-64770
X181769Y-62230
X181769Y-62230
X161131Y-83820
X161131Y-83820
X167481Y-81280
X167481Y-81280
X294481Y-83820
X294481Y-83820
X300831Y-81280
X300831Y-81280
X232569Y-64770
X232569Y-64770
X238919Y-62230
X238919Y-62230
X199231Y-83820
X199231Y-83820
X205581Y-81280
X205581Y-81280
X315912Y-102870
X315912Y-102870
X322263Y-100330
X322263Y-100330
X327819Y-102870
X327819Y-102870
X334169Y-100330
X334169Y-100330
X170656Y-102870
X170656Y-102870
X177006Y-100330
X177006Y-100330
X142081Y-83820
X142081Y-83820
X148431Y-81280
X148431Y-81280
X230188Y-121920
X230188Y-121920
X236538Y-119380
X236538Y-119380
X327819Y-64770
X327819Y-64770
X334169Y-62230
X334169Y-62230
X251619Y-64770
X251619Y-64770
X257969Y-62230
X257969Y-62230
X161131Y-121920
X161131Y-121920
X167481Y-119380
X167481Y-119380
X180181Y-83820
X180181Y-83820
X186531Y-81280
X186531Y-81280
X142081Y-121920
X142081Y-121920
X148431Y-119380
X148431Y-119380
X265906Y-102870
X265906Y-102870
X272256Y-100330
X272256Y-100330
X213519Y-64770
X213519Y-64770
X219869Y-62230
X219869Y-62230
X194469Y-64770
X194469Y-64770
X200819Y-62230
X200819Y-62230
X125413Y-102870
X125413Y-102870
X131763Y-100330
X131763Y-100330
X137319Y-64770
X137319Y-64770
X143669Y-62230
X143669Y-62230
X120650Y-83820
X120650Y-83820
X127000Y-81280
X127000Y-81280
X151606Y-102870
X151606Y-102870
X157956Y-100330
X157956Y-100330
X227806Y-102870
X227806Y-102870
X234156Y-100330
X234156Y-100330
T6
X223964Y-61687
X229744Y-61687
T7
X305118Y-105410
X315277Y-105410
X245586Y-105410
X255746Y-105410
X269399Y-67310
X279559Y-67310
X283686Y-105410
X293846Y-105410
X188436Y-105410
X198596Y-105410
X274161Y-86360
X284321Y-86360
X307499Y-67310
X317659Y-67310
X236061Y-86360
X246221Y-86360
X288449Y-67310
X298609Y-67310
X319405Y-86360
X329565Y-86360
X324167Y-124460
X334328Y-124460
X217011Y-86360
X227171Y-86360
X300355Y-124460
X310515Y-124460
X155099Y-67310
X165259Y-67310
X174149Y-67310
X184309Y-67310
X159861Y-86360
X170021Y-86360
X293211Y-86360
X303371Y-86360
X231299Y-67310
X241459Y-67310
X197961Y-86360
X208121Y-86360
X314642Y-105410
X324803Y-105410
X326549Y-105410
X336709Y-105410
X169386Y-105410
X179546Y-105410
X140811Y-86360
X150971Y-86360
X228917Y-124460
X239077Y-124460
X326549Y-67310
X336709Y-67310
X250349Y-67310
X260509Y-67310
X159861Y-124460
X170021Y-124460
X178911Y-86360
X189071Y-86360
X140811Y-124460
X150971Y-124460
X264636Y-105410
X274796Y-105410
X212249Y-67310
X222409Y-67310
X193199Y-67310
X203359Y-67310
X124143Y-105410
X134302Y-105410
X136049Y-67310
X146209Y-67310
X119380Y-86360
X129540Y-86360
X150336Y-105410
X160496Y-105410
X226536Y-105410
X236696Y-105410
X119380Y-124460
X129540Y-124460
X255111Y-86360
X265271Y-86360
X207486Y-105410
X217646Y-105410
X116999Y-67310
X127159Y-67310
T8
X307785Y-98425
X331661Y-98425
X183959Y-131445
X284036Y-131445
T9
X160179Y-67310
X179229Y-67310
X164941Y-86360
X298291Y-86360
X236379Y-67310
X203041Y-86360
X307785Y-113665
X319722Y-105410
X331661Y-113665
X331629Y-105410
X174466Y-105410
X145891Y-86360
X183959Y-116205
X233998Y-124460
X284036Y-116205
X331629Y-67310
X255429Y-67310
X164941Y-124460
X183991Y-86360
X145891Y-124460
X269716Y-105410
X217329Y-67310
X198279Y-67310
X129223Y-105410
X141129Y-67310
X124460Y-86360
X155416Y-105410
X231616Y-105410
X124460Y-124460
X260191Y-86360
X212566Y-105410
X122079Y-67310
X310198Y-105410
X250666Y-105410
X274479Y-67310
X288766Y-105410
X193516Y-105410
X279241Y-86360
X312579Y-67310
X241141Y-86360
X293529Y-67310
X324485Y-86360
X329248Y-124460
X222091Y-86360
X305435Y-124460
T2
G00X222554Y-57738
M15
G01X222554Y-58338
M16
G05
G00X222554Y-61688
M15
G01X222554Y-62788
M16
G05
G00X231154Y-57738
M15
G01X231154Y-58338
M16
G05
G00X231154Y-61688
M15
G01X231154Y-62788
M16
G05
T5
G00X338404Y-95885
M15
G01X343904Y-95885
M16
G05
G00X153035Y-135235
M15
G01X153035Y-132735
M16
G05
G00X-162637Y-21153
M15
G01X-160137Y-21153
M16
G05
G00X230366Y-86360
M15
G01X232866Y-86360
M16
G05
G00X168454Y-67310
M15
G01X170954Y-67310
M16
G05
G00X109804Y-95885
M15
G01X115304Y-95885
M16
G05
G00X282754Y-67310
M15
G01X285254Y-67310
M16
G05
G00X297101Y-135235
M15
G01X297101Y-132735
M16
G05
T0
M30
